<svg width="46" height="46" viewBox="0 0 46 46" fill="none" xmlns="http://www.w3.org/2000/svg" xmlns:xlink="http://www.w3.org/1999/xlink">
<g opacity="0.2">
<path d="M7.626,16.22L37.876,16.22L37.876,9.345C37.876,8.98 37.731,8.63 37.473,8.372C37.215,8.114 36.866,7.97 36.501,7.97L9.001,7.97C8.636,7.97 8.287,8.114 8.029,8.372C7.771,8.63 7.626,8.98 7.626,9.345L7.626,16.22Z" transform="rotate(-4 22.751 12.095)" fill="#000000"/>
</g>
<path d="M9.385,9.963L36.885,9.963L36.885,5.963L9.385,5.963L9.385,9.963ZM36.885,9.963C36.54,9.963 36.26,9.683 36.26,9.338L40.26,9.338C40.26,7.474 38.749,5.963 36.885,5.963L36.885,9.963ZM36.26,9.338L36.26,36.838L40.26,36.838L40.26,9.338L36.26,9.338ZM36.26,36.838C36.26,36.493 36.54,36.213 36.885,36.213L36.885,40.213C38.749,40.213 40.26,38.702 40.26,36.838L36.26,36.838ZM36.885,36.213L9.385,36.213L9.385,40.213L36.885,40.213L36.885,36.213ZM9.385,36.213C9.73,36.213 10.01,36.493 10.01,36.838L6.01,36.838C6.01,38.702 7.521,40.213 9.385,40.213L9.385,36.213ZM10.01,36.838L10.01,9.338L6.01,9.338L6.01,36.838L10.01,36.838ZM10.01,9.338C10.01,9.683 9.73,9.963 9.385,9.963L9.385,5.963C7.521,5.963 6.01,7.474 6.01,9.338L10.01,9.338Z" transform="rotate(-4 23.135 23.088)" fill="#000000"/>
<path d="M32.852,4.934C32.852,3.83 31.957,2.934 30.852,2.934C29.747,2.934 28.852,3.83 28.852,4.934L32.852,4.934ZM28.852,10.434C28.852,11.539 29.747,12.434 30.852,12.434C31.957,12.434 32.852,11.539 32.852,10.434L28.852,10.434ZM28.852,4.934L28.852,10.434L32.852,10.434L32.852,4.934L28.852,4.934Z" transform="rotate(-4 30.852 7.684)" fill="#000000"/>
<path d="M16.362,5.51C16.362,4.406 15.467,3.51 14.362,3.51C13.258,3.51 12.362,4.406 12.362,5.51L16.362,5.51ZM12.362,11.01C12.362,12.115 13.258,13.01 14.362,13.01C15.467,13.01 16.362,12.115 16.362,11.01L12.362,11.01ZM12.362,5.51L12.362,11.01L16.362,11.01L16.362,5.51L12.362,5.51Z" transform="rotate(-4 14.362 8.26)" fill="#000000"/>
<path d="M7.77,14.217C6.665,14.217 5.77,15.113 5.77,16.217C5.77,17.322 6.665,18.217 7.77,18.217L7.77,14.217ZM38.02,18.217C39.125,18.217 40.02,17.322 40.02,16.217C40.02,15.113 39.125,14.217 38.02,14.217L38.02,18.217ZM7.77,18.217L38.02,18.217L38.02,14.217L7.77,14.217L7.77,18.217Z" transform="rotate(-4 22.895 16.217)" fill="#000000"/>
</svg>
