<svg width="46" height="46" viewBox="0 0 46 46" fill="none" xmlns="http://www.w3.org/2000/svg" xmlns:xlink="http://www.w3.org/1999/xlink">
<g opacity="0.2">
<path d="M7.678,15.906L37.928,15.906L37.928,9.031C37.928,8.666 37.783,8.316 37.525,8.058C37.268,7.8 36.918,7.656 36.553,7.656L9.053,7.656C8.689,7.656 8.339,7.8 8.081,8.058C7.823,8.316 7.678,8.666 7.678,9.031L7.678,15.906Z" transform="rotate(-4 22.803 11.781)" fill="#000000"/>
</g>
<path d="M9.437,9.649L36.937,9.649L36.937,5.649L9.437,5.649L9.437,9.649ZM36.937,9.649C36.592,9.649 36.312,9.369 36.312,9.024L40.312,9.024C40.312,7.16 38.801,5.649 36.937,5.649L36.937,9.649ZM36.312,9.024L36.312,36.524L40.312,36.524L40.312,9.024L36.312,9.024ZM36.312,36.524C36.312,36.179 36.592,35.899 36.937,35.899L36.937,39.899C38.801,39.899 40.312,38.388 40.312,36.524L36.312,36.524ZM36.937,35.899L9.437,35.899L9.437,39.899L36.937,39.899L36.937,35.899ZM9.437,35.899C9.782,35.899 10.062,36.179 10.062,36.524L6.062,36.524C6.062,38.388 7.573,39.899 9.437,39.899L9.437,35.899ZM10.062,36.524L10.062,9.024L6.062,9.024L6.062,36.524L10.062,36.524ZM10.062,9.024C10.062,9.369 9.782,9.649 9.437,9.649L9.437,5.649C7.573,5.649 6.062,7.16 6.062,9.024L10.062,9.024Z" transform="rotate(-4 23.187 22.774)" fill="#000000"/>
<path d="M32.904,4.62C32.904,3.516 32.009,2.62 30.904,2.62C29.8,2.62 28.904,3.516 28.904,4.62L32.904,4.62ZM28.904,10.12C28.904,11.225 29.8,12.12 30.904,12.12C32.009,12.12 32.904,11.225 32.904,10.12L28.904,10.12ZM28.904,4.62L28.904,10.12L32.904,10.12L32.904,4.62L28.904,4.62Z" transform="rotate(-4 30.904 7.37)" fill="#000000"/>
<path d="M16.414,5.196C16.414,4.091 15.519,3.196 14.414,3.196C13.31,3.196 12.414,4.091 12.414,5.196L16.414,5.196ZM12.414,10.696C12.414,11.801 13.31,12.696 14.414,12.696C15.519,12.696 16.414,11.801 16.414,10.696L12.414,10.696ZM12.414,5.196L12.414,10.696L16.414,10.696L16.414,5.196L12.414,5.196Z" transform="rotate(-4 14.414 7.946)" fill="#000000"/>
<path d="M7.822,13.903C6.718,13.903 5.822,14.798 5.822,15.903C5.822,17.008 6.718,17.903 7.822,17.903L7.822,13.903ZM38.072,17.903C39.177,17.903 40.072,17.008 40.072,15.903C40.072,14.798 39.177,13.903 38.072,13.903L38.072,17.903ZM7.822,17.903L38.072,17.903L38.072,13.903L7.822,13.903L7.822,17.903Z" transform="rotate(-4 22.947 15.903)" fill="#000000"/>
</svg>
