<svg width="46" height="48" viewBox="0 0 46 48" fill="none" xmlns="http://www.w3.org/2000/svg" xmlns:xlink="http://www.w3.org/1999/xlink">
<g opacity="0.2">
<path d="M36.631,12.284L31.131,12.284L28.381,8.159L17.381,8.159L14.631,12.284L9.131,12.284C8.401,12.284 7.702,12.574 7.186,13.09C6.67,13.605 6.381,14.305 6.381,15.034L6.381,34.284C6.381,35.014 6.67,35.713 7.186,36.229C7.702,36.745 8.401,37.034 9.131,37.034L36.631,37.034C37.36,37.034 38.06,36.745 38.575,36.229C39.091,35.713 39.381,35.014 39.381,34.284L39.381,15.034C39.381,14.305 39.091,13.605 38.575,13.09C38.06,12.574 37.36,12.284 36.631,12.284ZM22.881,30.159C21.657,30.159 20.461,29.797 19.443,29.117C18.426,28.437 17.633,27.47 17.164,26.34C16.696,25.209 16.573,23.965 16.812,22.765C17.051,21.564 17.64,20.462 18.506,19.597C19.371,18.731 20.473,18.142 21.674,17.903C22.874,17.664 24.118,17.787 25.249,18.255C26.379,18.724 27.346,19.517 28.026,20.534C28.705,21.552 29.068,22.748 29.068,23.972C29.068,25.613 28.416,27.187 27.256,28.347C26.096,29.508 24.522,30.159 22.881,30.159Z" transform="rotate(4 22.881 22.597)" fill="#000000"/>
</g>
<path d="M6.381,34.284L4.381,34.284L6.381,34.284ZM9.131,12.284L9.131,14.284L9.131,12.284ZM14.631,12.284L14.631,14.284C15.299,14.284 15.924,13.95 16.295,13.394L14.631,12.284ZM17.381,8.159L17.381,6.159C16.712,6.159 16.088,6.494 15.717,7.05L17.381,8.159ZM28.381,8.159L30.045,7.05C29.674,6.494 29.05,6.159 28.381,6.159L28.381,8.159ZM31.131,12.284L29.467,13.394C29.838,13.95 30.462,14.284 31.131,14.284L31.131,12.284ZM38.575,13.09L39.99,11.676L38.575,13.09ZM38.575,36.229L39.99,37.643L38.575,36.229ZM36.631,35.034L9.131,35.034L9.131,39.034L36.631,39.034L36.631,35.034ZM9.131,35.034C8.932,35.034 8.741,34.955 8.6,34.815L5.772,37.643C6.663,38.534 7.871,39.034 9.131,39.034L9.131,35.034ZM8.6,34.815C8.46,34.674 8.381,34.483 8.381,34.284L4.381,34.284C4.381,35.544 4.881,36.752 5.772,37.643L8.6,34.815ZM8.381,34.284L8.381,15.034L4.381,15.034L4.381,34.284L8.381,34.284ZM8.381,15.034C8.381,14.835 8.46,14.645 8.6,14.504L5.772,11.676C4.881,12.566 4.381,13.775 4.381,15.034L8.381,15.034ZM8.6,14.504C8.741,14.363 8.932,14.284 9.131,14.284L9.131,10.284C7.871,10.284 6.663,10.785 5.772,11.676L8.6,14.504ZM9.131,14.284L14.631,14.284L14.631,10.284L9.131,10.284L9.131,14.284ZM16.295,13.394L19.045,9.269L15.717,7.05L12.967,11.175L16.295,13.394ZM17.381,10.159L28.381,10.159L28.381,6.159L17.381,6.159L17.381,10.159ZM26.717,9.269L29.467,13.394L32.795,11.175L30.045,7.05L26.717,9.269ZM31.131,14.284L36.631,14.284L36.631,10.284L31.131,10.284L31.131,14.284ZM36.631,14.284C36.83,14.284 37.02,14.363 37.161,14.504L39.99,11.676C39.099,10.785 37.891,10.284 36.631,10.284L36.631,14.284ZM37.161,14.504C37.302,14.645 37.381,14.835 37.381,15.034L41.381,15.034C41.381,13.775 40.88,12.566 39.99,11.676L37.161,14.504ZM37.381,15.034L37.381,34.284L41.381,34.284L41.381,15.034L37.381,15.034ZM37.381,34.284C37.381,34.483 37.302,34.674 37.161,34.815L39.99,37.643C40.88,36.752 41.381,35.544 41.381,34.284L37.381,34.284ZM37.161,34.815C37.02,34.955 36.83,35.034 36.631,35.034L36.631,39.034C37.891,39.034 39.099,38.534 39.99,37.643L37.161,34.815Z" transform="rotate(4 22.881 22.597)" fill="#000000"/>
<path d="M27.02,23.971C27.02,26.284 25.145,28.158 22.833,28.158L22.833,32.158C27.355,32.158 31.02,28.493 31.02,23.971L27.02,23.971ZM22.833,28.158C20.52,28.158 18.645,26.284 18.645,23.971L14.645,23.971C14.645,28.493 18.311,32.158 22.833,32.158L22.833,28.158ZM18.645,23.971C18.645,21.658 20.52,19.783 22.833,19.783L22.833,15.783C18.311,15.783 14.645,19.449 14.645,23.971L18.645,23.971ZM22.833,19.783C25.145,19.783 27.02,21.658 27.02,23.971L31.02,23.971C31.02,19.449 27.355,15.783 22.833,15.783L22.833,19.783Z" transform="rotate(4 22.833 23.971)" fill="#000000"/>
</svg>
