<svg width="46" height="46" viewBox="0 0 46 46" fill="none" xmlns="http://www.w3.org/2000/svg" xmlns:xlink="http://www.w3.org/1999/xlink">
<g opacity="0.2">
<path d="M35.87,11.239L30.37,11.239L27.62,7.114L16.62,7.114L13.87,11.239L8.37,11.239C7.641,11.239 6.941,11.528 6.426,12.044C5.91,12.56 5.62,13.259 5.62,13.989L5.62,33.239C5.62,33.968 5.91,34.667 6.426,35.183C6.941,35.699 7.641,35.989 8.37,35.989L35.87,35.989C36.6,35.989 37.299,35.699 37.815,35.183C38.33,34.667 38.62,33.968 38.62,33.239L38.62,13.989C38.62,13.259 38.33,12.56 37.815,12.044C37.299,11.528 36.6,11.239 35.87,11.239ZM22.12,29.114C20.896,29.114 19.7,28.751 18.683,28.071C17.665,27.391 16.872,26.425 16.404,25.294C15.935,24.163 15.813,22.919 16.052,21.719C16.29,20.519 16.88,19.416 17.745,18.551C18.61,17.686 19.713,17.096 20.913,16.858C22.113,16.619 23.357,16.741 24.488,17.21C25.619,17.678 26.585,18.471 27.265,19.489C27.945,20.506 28.308,21.702 28.308,22.926C28.308,24.567 27.656,26.141 26.495,27.301C25.335,28.462 23.761,29.114 22.12,29.114Z" transform="rotate(4 22.12 21.551)" fill="#000000"/>
</g>
<path d="M5.62,33.239L3.62,33.239L5.62,33.239ZM8.37,11.239L8.37,13.239L8.37,11.239ZM13.87,11.239L13.87,13.239C14.539,13.239 15.163,12.904 15.534,12.348L13.87,11.239ZM16.62,7.114L16.62,5.114C15.951,5.114 15.327,5.448 14.956,6.004L16.62,7.114ZM27.62,7.114L29.284,6.004C28.913,5.448 28.289,5.114 27.62,5.114L27.62,7.114ZM30.37,11.239L28.706,12.348C29.077,12.904 29.701,13.239 30.37,13.239L30.37,11.239ZM37.815,12.044L39.229,10.63L37.815,12.044ZM37.815,35.183L39.229,36.597L37.815,35.183ZM35.87,33.989L8.37,33.989L8.37,37.989L35.87,37.989L35.87,33.989ZM8.37,33.989C8.171,33.989 7.98,33.91 7.84,33.769L5.011,36.597C5.902,37.488 7.11,37.989 8.37,37.989L8.37,33.989ZM7.84,33.769C7.699,33.628 7.62,33.438 7.62,33.239L3.62,33.239C3.62,34.498 4.121,35.707 5.011,36.597L7.84,33.769ZM7.62,33.239L7.62,13.989L3.62,13.989L3.62,33.239L7.62,33.239ZM7.62,13.989C7.62,13.79 7.699,13.599 7.84,13.458L5.011,10.63C4.121,11.521 3.62,12.729 3.62,13.989L7.62,13.989ZM7.84,13.458C7.98,13.318 8.171,13.239 8.37,13.239L8.37,9.239C7.11,9.239 5.902,9.739 5.011,10.63L7.84,13.458ZM8.37,13.239L13.87,13.239L13.87,9.239L8.37,9.239L8.37,13.239ZM15.534,12.348L18.284,8.223L14.956,6.004L12.206,10.129L15.534,12.348ZM16.62,9.114L27.62,9.114L27.62,5.114L16.62,5.114L16.62,9.114ZM25.956,8.223L28.706,12.348L32.034,10.129L29.284,6.004L25.956,8.223ZM30.37,13.239L35.87,13.239L35.87,9.239L30.37,9.239L30.37,13.239ZM35.87,13.239C36.069,13.239 36.26,13.318 36.401,13.458L39.229,10.63C38.338,9.739 37.13,9.239 35.87,9.239L35.87,13.239ZM36.401,13.458C36.541,13.599 36.62,13.79 36.62,13.989L40.62,13.989C40.62,12.729 40.12,11.521 39.229,10.63L36.401,13.458ZM36.62,13.989L36.62,33.239L40.62,33.239L40.62,13.989L36.62,13.989ZM36.62,33.239C36.62,33.438 36.541,33.628 36.401,33.769L39.229,36.597C40.12,35.707 40.62,34.498 40.62,33.239L36.62,33.239ZM36.401,33.769C36.26,33.91 36.069,33.989 35.87,33.989L35.87,37.989C37.13,37.989 38.338,37.488 39.229,36.597L36.401,33.769Z" transform="rotate(4 22.12 21.551)" fill="#000000"/>
<path d="M26.26,22.925C26.26,25.238 24.385,27.113 22.072,27.113L22.072,31.113C26.594,31.113 30.26,27.447 30.26,22.925L26.26,22.925ZM22.072,27.113C19.759,27.113 17.885,25.238 17.885,22.925L13.885,22.925C13.885,27.447 17.55,31.113 22.072,31.113L22.072,27.113ZM17.885,22.925C17.885,20.613 19.759,18.738 22.072,18.738L22.072,14.738C17.55,14.738 13.885,18.404 13.885,22.925L17.885,22.925ZM22.072,18.738C24.385,18.738 26.26,20.613 26.26,22.925L30.26,22.925C30.26,18.404 26.594,14.738 22.072,14.738L22.072,18.738Z" transform="rotate(4 22.072 22.925)" fill="#000000"/>
</svg>
