<svg width="44" height="44" viewBox="0 0 44 44" fill="none" xmlns="http://www.w3.org/2000/svg" xmlns:xlink="http://www.w3.org/1999/xlink">
<g opacity="0.2">
<path d="M35.75,11L30.25,11L27.5,6.875L16.5,6.875L13.75,11L8.25,11C7.521,11 6.821,11.29 6.305,11.805C5.79,12.321 5.5,13.021 5.5,13.75L5.5,33C5.5,33.729 5.79,34.429 6.305,34.945C6.821,35.46 7.521,35.75 8.25,35.75L35.75,35.75C36.479,35.75 37.179,35.46 37.695,34.945C38.21,34.429 38.5,33.729 38.5,33L38.5,13.75C38.5,13.021 38.21,12.321 37.695,11.805C37.179,11.29 36.479,11 35.75,11ZM22,28.875C20.776,28.875 19.58,28.512 18.562,27.832C17.545,27.152 16.752,26.186 16.283,25.055C15.815,23.925 15.693,22.681 15.931,21.48C16.17,20.28 16.759,19.178 17.625,18.312C18.49,17.447 19.593,16.858 20.793,16.619C21.993,16.38 23.237,16.503 24.368,16.971C25.498,17.439 26.465,18.232 27.145,19.25C27.825,20.267 28.188,21.464 28.188,22.687C28.188,24.329 27.536,25.902 26.375,27.063C25.215,28.223 23.641,28.875 22,28.875Z" fill="#000000"/>
</g>
<path d="M5.5,33L3.5,33L5.5,33ZM8.25,11L8.25,13L8.25,11ZM13.75,11L13.75,13C14.419,13 15.043,12.666 15.414,12.109L13.75,11ZM16.5,6.875L16.5,4.875C15.831,4.875 15.207,5.209 14.836,5.766L16.5,6.875ZM27.5,6.875L29.164,5.766C28.793,5.209 28.169,4.875 27.5,4.875L27.5,6.875ZM30.25,11L28.586,12.109C28.957,12.666 29.581,13 30.25,13L30.25,11ZM37.695,11.805L39.109,10.391L37.695,11.805ZM37.695,34.945L39.109,36.359L37.695,34.945ZM35.75,33.75L8.25,33.75L8.25,37.75L35.75,37.75L35.75,33.75ZM8.25,33.75C8.051,33.75 7.86,33.671 7.72,33.53L4.891,36.359C5.782,37.25 6.99,37.75 8.25,37.75L8.25,33.75ZM7.72,33.53C7.579,33.39 7.5,33.199 7.5,33L3.5,33C3.5,34.26 4,35.468 4.891,36.359L7.72,33.53ZM7.5,33L7.5,13.75L3.5,13.75L3.5,33L7.5,33ZM7.5,13.75C7.5,13.551 7.579,13.36 7.72,13.22L4.891,10.391C4,11.282 3.5,12.49 3.5,13.75L7.5,13.75ZM7.72,13.22C7.86,13.079 8.051,13 8.25,13L8.25,9C6.99,9 5.782,9.5 4.891,10.391L7.72,13.22ZM8.25,13L13.75,13L13.75,9L8.25,9L8.25,13ZM15.414,12.109L18.164,7.984L14.836,5.766L12.086,9.891L15.414,12.109ZM16.5,8.875L27.5,8.875L27.5,4.875L16.5,4.875L16.5,8.875ZM25.836,7.984L28.586,12.109L31.914,9.891L29.164,5.766L25.836,7.984ZM30.25,13L35.75,13L35.75,9L30.25,9L30.25,13ZM35.75,13C35.949,13 36.14,13.079 36.28,13.22L39.109,10.391C38.218,9.5 37.01,9 35.75,9L35.75,13ZM36.28,13.22C36.421,13.36 36.5,13.551 36.5,13.75L40.5,13.75C40.5,12.49 40,11.282 39.109,10.391L36.28,13.22ZM36.5,13.75L36.5,33L40.5,33L40.5,13.75L36.5,13.75ZM36.5,33C36.5,33.199 36.421,33.39 36.28,33.53L39.109,36.359C40,35.468 40.5,34.26 40.5,33L36.5,33ZM36.28,33.53C36.14,33.671 35.949,33.75 35.75,33.75L35.75,37.75C37.01,37.75 38.218,37.25 39.109,36.359L36.28,33.53Z" fill="#000000"/>
<path d="M26.187,22.687C26.187,25 24.313,26.875 22,26.875L22,30.875C26.522,30.875 30.187,27.209 30.187,22.687L26.187,22.687ZM22,26.875C19.687,26.875 17.812,25 17.812,22.687L13.812,22.687C13.812,27.209 17.478,30.875 22,30.875L22,26.875ZM17.812,22.687C17.812,20.375 19.687,18.5 22,18.5L22,14.5C17.478,14.5 13.812,18.166 13.812,22.687L17.812,22.687ZM22,18.5C24.313,18.5 26.187,20.375 26.187,22.687L30.187,22.687C30.187,18.166 26.522,14.5 22,14.5L22,18.5Z" fill="#000000"/>
</svg>
