<svg width="46" height="48" viewBox="0 0 46 48" fill="none" xmlns="http://www.w3.org/2000/svg" xmlns:xlink="http://www.w3.org/1999/xlink">
<g opacity="0.2">
<path d="M36.841,8.163L9.341,8.163C8.582,8.163 7.966,8.778 7.966,9.538L7.966,37.038C7.966,37.797 8.582,38.413 9.341,38.413L36.841,38.413C37.601,38.413 38.216,37.797 38.216,37.038L38.216,9.538C38.216,8.778 37.601,8.163 36.841,8.163Z" transform="rotate(-4 23.091 23.288)" fill="#E45325"/>
</g>
<path d="M17.654,23.248C16.873,22.467 15.607,22.467 14.826,23.248C14.045,24.029 14.045,25.296 14.826,26.077L17.654,23.248ZM20.365,28.787L18.951,30.202C19.732,30.983 20.998,30.983 21.779,30.202L20.365,28.787ZM31.404,20.577C32.185,19.796 32.185,18.529 31.404,17.748C30.623,16.967 29.357,16.967 28.576,17.748L31.404,20.577ZM14.826,26.077L18.951,30.202L21.779,27.373L17.654,23.248L14.826,26.077ZM21.779,30.202L31.404,20.577L28.576,17.748L18.951,27.373L21.779,30.202Z" transform="rotate(-4 23.115 23.975)" fill="#E45325"/>
<path d="M9.341,10.163L36.841,10.163L36.841,6.163L9.341,6.163L9.341,10.163ZM36.841,10.163C36.496,10.163 36.216,9.883 36.216,9.538L40.216,9.538C40.216,7.674 38.705,6.163 36.841,6.163L36.841,10.163ZM36.216,9.538L36.216,37.038L40.216,37.038L40.216,9.538L36.216,9.538ZM36.216,37.038C36.216,36.693 36.496,36.413 36.841,36.413L36.841,40.413C38.705,40.413 40.216,38.902 40.216,37.038L36.216,37.038ZM36.841,36.413L9.341,36.413L9.341,40.413L36.841,40.413L36.841,36.413ZM9.341,36.413C9.686,36.413 9.966,36.693 9.966,37.038L5.966,37.038C5.966,38.902 7.477,40.413 9.341,40.413L9.341,36.413ZM9.966,37.038L9.966,9.538L5.966,9.538L5.966,37.038L9.966,37.038ZM9.966,9.538C9.966,9.883 9.686,10.163 9.341,10.163L9.341,6.163C7.477,6.163 5.966,7.674 5.966,9.538L9.966,9.538Z" transform="rotate(-4 23.091 23.288)" fill="#E45325"/>
</svg>
