<svg width="46" height="46" viewBox="0 0 46 46" fill="none" xmlns="http://www.w3.org/2000/svg" xmlns:xlink="http://www.w3.org/1999/xlink">
<g opacity="0.2">
<path d="M36.841,7.308L9.341,7.308C8.582,7.308 7.966,7.923 7.966,8.683L7.966,36.183C7.966,36.942 8.582,37.558 9.341,37.558L36.841,37.558C37.601,37.558 38.216,36.942 38.216,36.183L38.216,8.683C38.216,7.923 37.601,7.308 36.841,7.308Z" transform="rotate(-4 23.091 22.433)" fill="#254FE4"/>
</g>
<path d="M9.341,9.308L36.841,9.308L36.841,5.308L9.341,5.308L9.341,9.308ZM36.841,9.308C36.496,9.308 36.216,9.028 36.216,8.683L40.216,8.683C40.216,6.819 38.705,5.308 36.841,5.308L36.841,9.308ZM36.216,8.683L36.216,36.183L40.216,36.183L40.216,8.683L36.216,8.683ZM36.216,36.183C36.216,35.838 36.496,35.558 36.841,35.558L36.841,39.558C38.705,39.558 40.216,38.047 40.216,36.183L36.216,36.183ZM36.841,35.558L9.341,35.558L9.341,39.558L36.841,39.558L36.841,35.558ZM9.341,35.558C9.687,35.558 9.966,35.838 9.966,36.183L5.966,36.183C5.966,38.047 7.477,39.558 9.341,39.558L9.341,35.558ZM9.966,36.183L9.966,8.683L5.966,8.683L5.966,36.183L9.966,36.183ZM9.966,8.683C9.966,9.028 9.687,9.308 9.341,9.308L9.341,5.308C7.477,5.308 5.966,6.819 5.966,8.683L9.966,8.683Z" transform="rotate(-4 23.091 22.433)" fill="#254FE4"/>
</svg>
