<svg width="46" height="46" viewBox="0 0 46 46" fill="none" xmlns="http://www.w3.org/2000/svg" xmlns:xlink="http://www.w3.org/1999/xlink">
<g opacity="0.2">
<path d="M36.841,7.881L9.341,7.881C8.582,7.881 7.966,8.497 7.966,9.256L7.966,36.756C7.966,37.515 8.582,38.131 9.341,38.131L36.841,38.131C37.601,38.131 38.216,37.515 38.216,36.756L38.216,9.256C38.216,8.497 37.601,7.881 36.841,7.881Z" transform="rotate(-4 23.091 23.006)" fill="#E45325"/>
</g>
<path d="M17.654,22.966C16.873,22.185 15.607,22.185 14.826,22.966C14.045,23.747 14.045,25.014 14.826,25.795L17.654,22.966ZM20.365,28.506L18.951,29.92C19.732,30.701 20.998,30.701 21.779,29.92L20.365,28.506ZM31.404,20.295C32.185,19.514 32.185,18.247 31.404,17.466C30.623,16.685 29.357,16.685 28.576,17.466L31.404,20.295ZM14.826,25.795L18.951,29.92L21.779,27.091L17.654,22.966L14.826,25.795ZM21.779,29.92L31.404,20.295L28.576,17.466L18.951,27.091L21.779,29.92Z" transform="rotate(-4 23.115 23.693)" fill="#E45325"/>
<path d="M9.341,9.881L36.841,9.881L36.841,5.881L9.341,5.881L9.341,9.881ZM36.841,9.881C36.496,9.881 36.216,9.601 36.216,9.256L40.216,9.256C40.216,7.392 38.705,5.881 36.841,5.881L36.841,9.881ZM36.216,9.256L36.216,36.756L40.216,36.756L40.216,9.256L36.216,9.256ZM36.216,36.756C36.216,36.411 36.496,36.131 36.841,36.131L36.841,40.131C38.705,40.131 40.216,38.62 40.216,36.756L36.216,36.756ZM36.841,36.131L9.341,36.131L9.341,40.131L36.841,40.131L36.841,36.131ZM9.341,36.131C9.687,36.131 9.966,36.411 9.966,36.756L5.966,36.756C5.966,38.62 7.477,40.131 9.341,40.131L9.341,36.131ZM9.966,36.756L9.966,9.256L5.966,9.256L5.966,36.756L9.966,36.756ZM9.966,9.256C9.966,9.601 9.687,9.881 9.341,9.881L9.341,5.881C7.477,5.881 5.966,7.392 5.966,9.256L9.966,9.256Z" transform="rotate(-4 23.091 23.006)" fill="#E45325"/>
</svg>
