<svg width="46" height="48" viewBox="0 0 46 48" fill="none" xmlns="http://www.w3.org/2000/svg" xmlns:xlink="http://www.w3.org/1999/xlink">
<g opacity="0.2">
<path d="M36.841,8.333L9.341,8.333C8.582,8.333 7.966,8.949 7.966,9.708L7.966,37.208C7.966,37.968 8.582,38.583 9.341,38.583L36.841,38.583C37.601,38.583 38.216,37.968 38.216,37.208L38.216,9.708C38.216,8.949 37.601,8.333 36.841,8.333Z" transform="rotate(-4 23.091 23.458)" fill="#E45325"/>
</g>
<path d="M9.341,10.333L36.841,10.333L36.841,6.333L9.341,6.333L9.341,10.333ZM36.841,10.333C36.496,10.333 36.216,10.053 36.216,9.708L40.216,9.708C40.216,7.844 38.705,6.333 36.841,6.333L36.841,10.333ZM36.216,9.708L36.216,37.208L40.216,37.208L40.216,9.708L36.216,9.708ZM36.216,37.208C36.216,36.863 36.496,36.583 36.841,36.583L36.841,40.583C38.705,40.583 40.216,39.072 40.216,37.208L36.216,37.208ZM36.841,36.583L9.341,36.583L9.341,40.583L36.841,40.583L36.841,36.583ZM9.341,36.583C9.687,36.583 9.966,36.863 9.966,37.208L5.966,37.208C5.966,39.072 7.477,40.583 9.341,40.583L9.341,36.583ZM9.966,37.208L9.966,9.708L5.966,9.708L5.966,37.208L9.966,37.208ZM9.966,9.708C9.966,10.053 9.687,10.333 9.341,10.333L9.341,6.333C7.477,6.333 5.966,7.844 5.966,9.708L9.966,9.708Z" transform="rotate(-4 23.091 23.458)" fill="#E45325"/>
</svg>
