<svg width="46" height="46" viewBox="0 0 46 46" fill="none" xmlns="http://www.w3.org/2000/svg" xmlns:xlink="http://www.w3.org/1999/xlink">
<g opacity="0.2">
<path d="M36.841,7.323L9.341,7.323C8.582,7.323 7.966,7.938 7.966,8.698L7.966,36.198C7.966,36.957 8.582,37.573 9.341,37.573L36.841,37.573C37.601,37.573 38.216,36.957 38.216,36.198L38.216,8.698C38.216,7.938 37.601,7.323 36.841,7.323Z" transform="rotate(-4 23.091 22.448)" fill="#254FE4"/>
</g>
<path d="M9.341,9.323L36.841,9.323L36.841,5.323L9.341,5.323L9.341,9.323ZM36.841,9.323C36.496,9.323 36.216,9.043 36.216,8.698L40.216,8.698C40.216,6.834 38.705,5.323 36.841,5.323L36.841,9.323ZM36.216,8.698L36.216,36.198L40.216,36.198L40.216,8.698L36.216,8.698ZM36.216,36.198C36.216,35.852 36.496,35.573 36.841,35.573L36.841,39.573C38.705,39.573 40.216,38.062 40.216,36.198L36.216,36.198ZM36.841,35.573L9.341,35.573L9.341,39.573L36.841,39.573L36.841,35.573ZM9.341,35.573C9.686,35.573 9.966,35.852 9.966,36.198L5.966,36.198C5.966,38.062 7.477,39.573 9.341,39.573L9.341,35.573ZM9.966,36.198L9.966,8.698L5.966,8.698L5.966,36.198L9.966,36.198ZM9.966,8.698C9.966,9.043 9.686,9.323 9.341,9.323L9.341,5.323C7.477,5.323 5.966,6.834 5.966,8.698L9.966,8.698Z" transform="rotate(-4 23.091 22.448)" fill="#254FE4"/>
</svg>
