<svg width="46" height="46" viewBox="0 0 46 46" fill="none" xmlns="http://www.w3.org/2000/svg" xmlns:xlink="http://www.w3.org/1999/xlink">
<g opacity="0.2">
<path d="M36.841,7.271L9.341,7.271C8.582,7.271 7.966,7.887 7.966,8.646L7.966,36.146C7.966,36.906 8.582,37.521 9.341,37.521L36.841,37.521C37.601,37.521 38.216,36.906 38.216,36.146L38.216,8.646C38.216,7.887 37.601,7.271 36.841,7.271Z" transform="rotate(-4 23.091 22.396)" fill="#E45325"/>
</g>
<path d="M17.654,22.357C16.873,21.576 15.607,21.576 14.826,22.357C14.045,23.138 14.045,24.404 14.826,25.185L17.654,22.357ZM20.365,27.896L18.951,29.31C19.732,30.091 20.998,30.091 21.779,29.31L20.365,27.896ZM31.404,19.685C32.185,18.904 32.185,17.638 31.404,16.857C30.623,16.076 29.357,16.076 28.576,16.857L31.404,19.685ZM14.826,25.185L18.951,29.31L21.779,26.482L17.654,22.357L14.826,25.185ZM21.779,29.31L31.404,19.685L28.576,16.857L18.951,26.482L21.779,29.31Z" transform="rotate(-4 23.115 23.084)" fill="#E45325"/>
<path d="M9.341,9.271L36.841,9.271L36.841,5.271L9.341,5.271L9.341,9.271ZM36.841,9.271C36.496,9.271 36.216,8.992 36.216,8.646L40.216,8.646C40.216,6.783 38.705,5.271 36.841,5.271L36.841,9.271ZM36.216,8.646L36.216,36.146L40.216,36.146L40.216,8.646L36.216,8.646ZM36.216,36.146C36.216,35.801 36.496,35.521 36.841,35.521L36.841,39.521C38.705,39.521 40.216,38.01 40.216,36.146L36.216,36.146ZM36.841,35.521L9.341,35.521L9.341,39.521L36.841,39.521L36.841,35.521ZM9.341,35.521C9.687,35.521 9.966,35.801 9.966,36.146L5.966,36.146C5.966,38.01 7.477,39.521 9.341,39.521L9.341,35.521ZM9.966,36.146L9.966,8.646L5.966,8.646L5.966,36.146L9.966,36.146ZM9.966,8.646C9.966,8.992 9.687,9.271 9.341,9.271L9.341,5.271C7.477,5.271 5.966,6.783 5.966,8.646L9.966,8.646Z" transform="rotate(-4 23.091 22.396)" fill="#E45325"/>
</svg>
