<svg width="46" height="46" viewBox="0 0 46 46" fill="none" xmlns="http://www.w3.org/2000/svg" xmlns:xlink="http://www.w3.org/1999/xlink">
<g opacity="0.2">
<path d="M36.841,7.414L9.341,7.414C8.582,7.414 7.966,8.029 7.966,8.789L7.966,36.289C7.966,37.048 8.582,37.664 9.341,37.664L36.841,37.664C37.601,37.664 38.216,37.048 38.216,36.289L38.216,8.789C38.216,8.029 37.601,7.414 36.841,7.414Z" transform="rotate(-4 23.091 22.539)" fill="#404040"/>
</g>
<path d="M17.654,22.499C16.873,21.718 15.607,21.718 14.826,22.499C14.045,23.28 14.045,24.547 14.826,25.328L17.654,22.499ZM20.365,28.038L18.951,29.453C19.732,30.234 20.998,30.234 21.779,29.453L20.365,28.038ZM31.404,19.828C32.185,19.047 32.185,17.78 31.404,16.999C30.623,16.218 29.357,16.218 28.576,16.999L31.404,19.828ZM14.826,25.328L18.951,29.453L21.779,26.624L17.654,22.499L14.826,25.328ZM21.779,29.453L31.404,19.828L28.576,16.999L18.951,26.624L21.779,29.453Z" transform="rotate(-4 23.115 23.226)" fill="#404040"/>
<path d="M9.341,9.414L36.841,9.414L36.841,5.414L9.341,5.414L9.341,9.414ZM36.841,9.414C36.496,9.414 36.216,9.134 36.216,8.789L40.216,8.789C40.216,6.925 38.705,5.414 36.841,5.414L36.841,9.414ZM36.216,8.789L36.216,36.289L40.216,36.289L40.216,8.789L36.216,8.789ZM36.216,36.289C36.216,35.944 36.496,35.664 36.841,35.664L36.841,39.664C38.705,39.664 40.216,38.153 40.216,36.289L36.216,36.289ZM36.841,35.664L9.341,35.664L9.341,39.664L36.841,39.664L36.841,35.664ZM9.341,35.664C9.687,35.664 9.966,35.944 9.966,36.289L5.966,36.289C5.966,38.153 7.477,39.664 9.341,39.664L9.341,35.664ZM9.966,36.289L9.966,8.789L5.966,8.789L5.966,36.289L9.966,36.289ZM9.966,8.789C9.966,9.134 9.687,9.414 9.341,9.414L9.341,5.414C7.477,5.414 5.966,6.925 5.966,8.789L9.966,8.789Z" transform="rotate(-4 23.091 22.539)" fill="#404040"/>
</svg>
