<svg width="44" height="46" viewBox="0 0 44 46" fill="none" xmlns="http://www.w3.org/2000/svg" xmlns:xlink="http://www.w3.org/1999/xlink">
<g opacity="0.2">
<path d="M40,2.792L40,40.792C40,41.322 39.789,41.831 39.414,42.206C39.039,42.581 38.53,42.792 38,42.792L6,42.792C5.47,42.792 4.961,42.581 4.586,42.206C4.211,41.831 4,41.322 4,40.792L4,2.792L40,2.792Z" fill="#E3E3E3"/>
</g>
<line x1="0" y1="0.792" x2="44" y2="0.792" stroke="#E3E3E3" stroke-width="2" stroke-miterlimit="3.999327" stroke-linecap="round" stroke-linejoin="round"/>
<line x1="14" y1="14.792" x2="14" y2="30.792" stroke="#E3E3E3" stroke-width="2" stroke-miterlimit="3.999327" stroke-linecap="round" stroke-linejoin="round"/>
<line x1="26" y1="14.792" x2="26" y2="30.792" stroke="#E3E3E3" stroke-width="2" stroke-miterlimit="3.999327" stroke-linecap="round" stroke-linejoin="round"/>
<path d="M42,2.792C42,1.687 41.105,0.792 40,0.792C38.895,0.792 38,1.687 38,2.792L42,2.792ZM6,2.792C6,1.687 5.105,0.792 4,0.792C2.895,0.792 2,1.687 2,2.792L6,2.792ZM38,2.792L38,40.792L42,40.792L42,2.792L38,2.792ZM38,40.792L38,40.792L40.828,43.62C41.579,42.87 42,41.853 42,40.792L38,40.792ZM38,40.792L38,40.792L38,44.792C39.061,44.792 40.078,44.371 40.828,43.62L38,40.792ZM38,40.792L6,40.792L6,44.792L38,44.792L38,40.792ZM6,40.792L6,40.792L3.172,43.62C3.922,44.371 4.939,44.792 6,44.792L6,40.792ZM6,40.792L6,40.792L2,40.792C2,41.853 2.421,42.87 3.172,43.62L6,40.792ZM6,40.792L6,2.792L2,2.792L2,40.792L6,40.792Z" fill="#E3E3E3"/>
</svg>
