<svg width="44" height="44" viewBox="0 0 44 44" fill="none" xmlns="http://www.w3.org/2000/svg" xmlns:xlink="http://www.w3.org/1999/xlink">
<g opacity="0.2">
<path d="M40,1.419L40,39.419C40,39.949 39.789,40.458 39.414,40.833C39.039,41.208 38.53,41.419 38,41.419L6,41.419C5.47,41.419 4.961,41.208 4.586,40.833C4.211,40.458 4,39.949 4,39.419L4,1.419L40,1.419Z" fill="#E3E3E3"/>
</g>
<line x1="0" y1="-0.581" x2="44" y2="-0.581" stroke="#E3E3E3" stroke-width="2" stroke-miterlimit="3.999327" stroke-linecap="round" stroke-linejoin="round"/>
<line x1="14" y1="13.419" x2="14" y2="29.419" stroke="#E3E3E3" stroke-width="2" stroke-miterlimit="3.999327" stroke-linecap="round" stroke-linejoin="round"/>
<line x1="26" y1="13.419" x2="26" y2="29.419" stroke="#E3E3E3" stroke-width="2" stroke-miterlimit="3.999327" stroke-linecap="round" stroke-linejoin="round"/>
<path d="M42,1.419C42,0.314 41.105,-0.581 40,-0.581C38.895,-0.581 38,0.314 38,1.419L42,1.419ZM6,1.419C6,0.314 5.105,-0.581 4,-0.581C2.895,-0.581 2,0.314 2,1.419L6,1.419ZM38,1.419L38,39.419L42,39.419L42,1.419L38,1.419ZM38,39.419L38,39.419L40.828,42.247C41.579,41.497 42,40.48 42,39.419L38,39.419ZM38,39.419L38,39.419L38,43.419C39.061,43.419 40.078,42.997 40.828,42.247L38,39.419ZM38,39.419L6,39.419L6,43.419L38,43.419L38,39.419ZM6,39.419L6,39.419L3.172,42.247C3.922,42.997 4.939,43.419 6,43.419L6,39.419ZM6,39.419L6,39.419L2,39.419C2,40.48 2.421,41.497 3.172,42.247L6,39.419ZM6,39.419L6,1.419L2,1.419L2,39.419L6,39.419Z" fill="#E3E3E3"/>
</svg>
