<svg width="80" height="76" viewBox="0 0 80 76" fill="none" xmlns="http://www.w3.org/2000/svg" xmlns:xlink="http://www.w3.org/1999/xlink">
<g opacity="0.2">
<path d="M73.375,30.125L5.875,30.125C4.011,30.125 2.5,31.132 2.5,32.375L2.5,43.625C2.5,44.868 4.011,45.875 5.875,45.875L73.375,45.875C75.239,45.875 76.75,44.868 76.75,43.625L76.75,32.375C76.75,31.132 75.239,30.125 73.375,30.125Z" transform="rotate(180 39.625 38)" fill="#404040"/>
</g>
<path d="M5.875,32.125L73.375,32.125L73.375,28.125L5.875,28.125L5.875,32.125ZM73.375,32.125C73.967,32.125 74.413,32.289 74.652,32.448C74.905,32.617 74.75,32.63 74.75,32.375L78.75,32.375C78.75,30.877 77.839,29.765 76.871,29.12C75.889,28.465 74.647,28.125 73.375,28.125L73.375,32.125ZM74.75,32.375L74.75,43.625L78.75,43.625L78.75,32.375L74.75,32.375ZM74.75,43.625C74.75,43.37 74.905,43.383 74.652,43.552C74.413,43.711 73.967,43.875 73.375,43.875L73.375,47.875C74.647,47.875 75.889,47.535 76.871,46.88C77.839,46.235 78.75,45.123 78.75,43.625L74.75,43.625ZM73.375,43.875L5.875,43.875L5.875,47.875L73.375,47.875L73.375,43.875ZM5.875,43.875C5.283,43.875 4.837,43.711 4.598,43.552C4.345,43.383 4.5,43.37 4.5,43.625L0.5,43.625C0.5,45.123 1.411,46.235 2.379,46.88C3.361,47.535 4.603,47.875 5.875,47.875L5.875,43.875ZM4.5,43.625L4.5,32.375L0.5,32.375L0.5,43.625L4.5,43.625ZM4.5,32.375C4.5,32.63 4.345,32.617 4.598,32.448C4.837,32.289 5.283,32.125 5.875,32.125L5.875,28.125C4.603,28.125 3.361,28.465 2.379,29.12C1.411,29.765 0.5,30.877 0.5,32.375L4.5,32.375Z" transform="rotate(180 39.625 38)" fill="#404040"/>
</svg>
