<svg width="60" height="42" viewBox="0 0 60 42" fill="none" xmlns="http://www.w3.org/2000/svg" xmlns:xlink="http://www.w3.org/1999/xlink">
<g opacity="0.2">
<path d="M30,2.792C10,2.792 2,20.792 2,20.792C2,20.792 10,38.792 30,38.792C50,38.792 58,20.792 58,20.792C58,20.792 50,2.792 30,2.792ZM30,30.792C28.022,30.792 26.089,30.206 24.444,29.107C22.8,28.008 21.518,26.446 20.761,24.619C20.004,22.792 19.806,20.781 20.192,18.841C20.578,16.901 21.53,15.119 22.929,13.721C24.327,12.322 26.109,11.37 28.049,10.984C29.989,10.598 32,10.796 33.827,11.553C35.654,12.31 37.216,13.592 38.315,15.236C39.414,16.881 40,18.814 40,20.792C40,23.444 38.946,25.988 37.071,27.863C35.196,29.738 32.652,30.792 30,30.792Z" fill="#E3E3E3"/>
</g>
<path d="M2,20.792L0.172,19.98C-0.057,20.497 -0.057,21.087 0.172,21.604L2,20.792ZM58,20.792L59.828,21.604C60.057,21.087 60.057,20.497 59.828,19.98L58,20.792ZM30,0.792C19.335,0.792 11.853,5.61 7.086,10.378C4.708,12.756 2.993,15.13 1.87,16.914C1.308,17.807 0.891,18.557 0.611,19.091C0.471,19.358 0.365,19.571 0.293,19.722C0.256,19.798 0.228,19.858 0.208,19.901C0.198,19.923 0.19,19.94 0.184,19.953C0.181,19.96 0.179,19.965 0.177,19.97C0.176,19.972 0.175,19.974 0.174,19.976C0.174,19.976 0.173,19.977 0.173,19.978C0.173,19.979 0.172,19.98 2,20.792C3.828,21.604 3.827,21.605 3.827,21.606C3.827,21.606 3.827,21.606 3.827,21.607C3.826,21.607 3.826,21.608 3.826,21.608C3.826,21.608 3.827,21.607 3.827,21.605C3.829,21.6 3.833,21.592 3.839,21.58C3.85,21.555 3.87,21.514 3.897,21.457C3.951,21.345 4.037,21.172 4.154,20.947C4.39,20.496 4.755,19.839 5.255,19.045C6.257,17.454 7.792,15.328 9.914,13.206C14.147,8.974 20.665,4.792 30,4.792L30,0.792ZM2,20.792C0.172,21.604 0.173,21.605 0.173,21.606C0.173,21.607 0.174,21.608 0.174,21.608C0.175,21.61 0.176,21.612 0.177,21.614C0.179,21.619 0.181,21.624 0.184,21.631C0.19,21.644 0.198,21.661 0.208,21.683C0.228,21.726 0.256,21.786 0.293,21.862C0.365,22.013 0.471,22.226 0.611,22.493C0.891,23.027 1.308,23.777 1.87,24.67C2.993,26.454 4.708,28.828 7.086,31.206C11.853,35.974 19.335,40.792 30,40.792L30,36.792C20.665,36.792 14.147,32.61 9.914,28.378C7.792,26.256 6.257,24.13 5.255,22.539C4.755,21.745 4.39,21.088 4.154,20.637C4.037,20.412 3.951,20.239 3.897,20.127C3.87,20.07 3.85,20.029 3.839,20.004C3.833,19.992 3.829,19.984 3.827,19.979C3.827,19.977 3.826,19.976 3.826,19.976C3.826,19.976 3.826,19.977 3.827,19.977C3.827,19.977 3.827,19.978 3.827,19.978C3.827,19.979 3.828,19.98 2,20.792ZM30,40.792C40.665,40.792 48.147,35.974 52.914,31.206C55.292,28.828 57.007,26.454 58.13,24.67C58.692,23.777 59.109,23.027 59.389,22.493C59.529,22.226 59.635,22.013 59.707,21.862C59.744,21.786 59.772,21.726 59.792,21.683C59.802,21.661 59.81,21.644 59.816,21.631C59.819,21.624 59.821,21.619 59.823,21.614C59.824,21.612 59.825,21.61 59.826,21.608C59.826,21.608 59.827,21.607 59.827,21.606C59.827,21.605 59.828,21.604 58,20.792C56.172,19.98 56.173,19.979 56.173,19.978C56.173,19.978 56.173,19.977 56.173,19.977C56.174,19.977 56.174,19.976 56.174,19.976C56.174,19.976 56.173,19.977 56.173,19.979C56.171,19.984 56.167,19.992 56.161,20.004C56.15,20.029 56.13,20.07 56.103,20.127C56.049,20.239 55.963,20.412 55.846,20.637C55.61,21.088 55.245,21.745 54.745,22.539C53.743,24.13 52.208,26.256 50.086,28.378C45.853,32.61 39.335,36.792 30,36.792L30,40.792ZM58,20.792C59.828,19.98 59.827,19.979 59.827,19.978C59.827,19.977 59.826,19.976 59.826,19.976C59.825,19.974 59.824,19.972 59.823,19.97C59.821,19.965 59.819,19.96 59.816,19.953C59.81,19.94 59.802,19.923 59.792,19.901C59.772,19.858 59.744,19.798 59.707,19.722C59.635,19.571 59.529,19.358 59.389,19.091C59.109,18.557 58.692,17.807 58.13,16.914C57.007,15.13 55.292,12.756 52.914,10.378C48.147,5.61 40.665,0.792 30,0.792L30,4.792C39.335,4.792 45.853,8.974 50.086,13.206C52.208,15.328 53.743,17.454 54.745,19.045C55.245,19.839 55.61,20.496 55.846,20.947C55.963,21.172 56.049,21.345 56.103,21.457C56.13,21.514 56.15,21.555 56.161,21.58C56.167,21.592 56.171,21.6 56.173,21.605C56.173,21.607 56.174,21.608 56.174,21.608C56.174,21.608 56.174,21.607 56.173,21.607C56.173,21.606 56.173,21.606 56.173,21.606C56.173,21.605 56.172,21.604 58,20.792Z" fill="#E3E3E3"/>
<path d="M38,20.792C38,25.21 34.418,28.792 30,28.792L30,32.792C36.627,32.792 42,27.419 42,20.792L38,20.792ZM30,28.792C25.582,28.792 22,25.21 22,20.792L18,20.792C18,27.419 23.373,32.792 30,32.792L30,28.792ZM22,20.792C22,16.374 25.582,12.792 30,12.792L30,8.792C23.373,8.792 18,14.165 18,20.792L22,20.792ZM30,12.792C34.418,12.792 38,16.374 38,20.792L42,20.792C42,14.165 36.627,8.792 30,8.792L30,12.792Z" fill="#E3E3E3"/>
</svg>
