<svg width="60" height="40" viewBox="0 0 60 40" fill="none" xmlns="http://www.w3.org/2000/svg" xmlns:xlink="http://www.w3.org/1999/xlink">
<g opacity="0.2">
<path d="M30,1.419C10,1.419 2,19.419 2,19.419C2,19.419 10,37.419 30,37.419C50,37.419 58,19.419 58,19.419C58,19.419 50,1.419 30,1.419ZM30,29.419C28.022,29.419 26.089,28.832 24.444,27.733C22.8,26.635 21.518,25.073 20.761,23.246C20.004,21.418 19.806,19.408 20.192,17.468C20.578,15.528 21.53,13.746 22.929,12.348C24.327,10.949 26.109,9.997 28.049,9.611C29.989,9.225 32,9.423 33.827,10.18C35.654,10.937 37.216,12.219 38.315,13.863C39.414,15.508 40,17.441 40,19.419C40,22.071 38.946,24.615 37.071,26.49C35.196,28.365 32.652,29.419 30,29.419Z" fill="#E3E3E3"/>
</g>
<path d="M2,19.419L0.172,18.607C-0.057,19.124 -0.057,19.714 0.172,20.231L2,19.419ZM58,19.419L59.828,20.231C60.057,19.714 60.057,19.124 59.828,18.607L58,19.419ZM30,-0.581C19.335,-0.581 11.853,4.237 7.086,9.005C4.708,11.383 2.993,13.757 1.87,15.541C1.308,16.434 0.891,17.184 0.611,17.717C0.471,17.984 0.365,18.198 0.293,18.349C0.256,18.425 0.228,18.485 0.208,18.528C0.198,18.549 0.19,18.567 0.184,18.58C0.181,18.587 0.179,18.592 0.177,18.597C0.176,18.599 0.175,18.601 0.174,18.602C0.174,18.603 0.173,18.604 0.173,18.605C0.173,18.606 0.172,18.607 2,19.419C3.828,20.231 3.827,20.232 3.827,20.233C3.827,20.233 3.827,20.233 3.827,20.234C3.826,20.234 3.826,20.234 3.826,20.234C3.826,20.235 3.827,20.234 3.827,20.231C3.829,20.227 3.833,20.219 3.839,20.207C3.85,20.182 3.87,20.141 3.897,20.084C3.951,19.972 4.037,19.799 4.154,19.573C4.39,19.123 4.755,18.466 5.255,17.672C6.257,16.08 7.792,13.955 9.914,11.833C14.147,7.601 20.665,3.419 30,3.419L30,-0.581ZM2,19.419C0.172,20.231 0.173,20.232 0.173,20.233C0.173,20.233 0.174,20.234 0.174,20.235C0.175,20.237 0.176,20.239 0.177,20.241C0.179,20.245 0.181,20.251 0.184,20.258C0.19,20.271 0.198,20.288 0.208,20.31C0.228,20.353 0.256,20.413 0.293,20.489C0.365,20.64 0.471,20.853 0.611,21.12C0.891,21.654 1.308,22.404 1.87,23.297C2.993,25.08 4.708,27.455 7.086,29.833C11.853,34.601 19.335,39.419 30,39.419L30,35.419C20.665,35.419 14.147,31.237 9.914,27.005C7.792,24.883 6.257,22.757 5.255,21.166C4.755,20.371 4.39,19.715 4.154,19.264C4.037,19.039 3.951,18.866 3.897,18.753C3.87,18.697 3.85,18.656 3.839,18.631C3.833,18.619 3.829,18.61 3.827,18.606C3.827,18.604 3.826,18.603 3.826,18.603C3.826,18.603 3.826,18.603 3.827,18.604C3.827,18.604 3.827,18.605 3.827,18.605C3.827,18.606 3.828,18.607 2,19.419ZM30,39.419C40.665,39.419 48.147,34.601 52.914,29.833C55.292,27.455 57.007,25.08 58.13,23.297C58.692,22.404 59.109,21.654 59.389,21.12C59.529,20.853 59.635,20.64 59.707,20.489C59.744,20.413 59.772,20.353 59.792,20.31C59.802,20.288 59.81,20.271 59.816,20.258C59.819,20.251 59.821,20.245 59.823,20.241C59.824,20.239 59.825,20.237 59.826,20.235C59.826,20.234 59.827,20.233 59.827,20.233C59.827,20.232 59.828,20.231 58,19.419C56.172,18.607 56.173,18.606 56.173,18.605C56.173,18.605 56.173,18.604 56.173,18.604C56.174,18.603 56.174,18.603 56.174,18.603C56.174,18.603 56.173,18.604 56.173,18.606C56.171,18.61 56.167,18.619 56.161,18.631C56.15,18.656 56.13,18.697 56.103,18.753C56.049,18.866 55.963,19.039 55.846,19.264C55.61,19.715 55.245,20.371 54.745,21.166C53.743,22.757 52.208,24.883 50.086,27.005C45.853,31.237 39.335,35.419 30,35.419L30,39.419ZM58,19.419C59.828,18.607 59.827,18.606 59.827,18.605C59.827,18.604 59.826,18.603 59.826,18.602C59.825,18.601 59.824,18.599 59.823,18.597C59.821,18.592 59.819,18.587 59.816,18.58C59.81,18.567 59.802,18.549 59.792,18.528C59.772,18.485 59.744,18.425 59.707,18.349C59.635,18.198 59.529,17.984 59.389,17.717C59.109,17.184 58.692,16.434 58.13,15.541C57.007,13.757 55.292,11.383 52.914,9.005C48.147,4.237 40.665,-0.581 30,-0.581L30,3.419C39.335,3.419 45.853,7.601 50.086,11.833C52.208,13.955 53.743,16.08 54.745,17.672C55.245,18.466 55.61,19.123 55.846,19.573C55.963,19.799 56.049,19.972 56.103,20.084C56.13,20.141 56.15,20.182 56.161,20.207C56.167,20.219 56.171,20.227 56.173,20.231C56.173,20.234 56.174,20.235 56.174,20.234C56.174,20.234 56.174,20.234 56.173,20.234C56.173,20.233 56.173,20.233 56.173,20.233C56.173,20.232 56.172,20.231 58,19.419Z" fill="#E3E3E3"/>
<path d="M38,19.419C38,23.837 34.418,27.419 30,27.419L30,31.419C36.627,31.419 42,26.046 42,19.419L38,19.419ZM30,27.419C25.582,27.419 22,23.837 22,19.419L18,19.419C18,26.046 23.373,31.419 30,31.419L30,27.419ZM22,19.419C22,15.001 25.582,11.419 30,11.419L30,7.419C23.373,7.419 18,12.791 18,19.419L22,19.419ZM30,11.419C34.418,11.419 38,15.001 38,19.419L42,19.419C42,12.791 36.627,7.419 30,7.419L30,11.419Z" fill="#E3E3E3"/>
</svg>
