<svg width="48" height="46" viewBox="0 0 48 46" fill="none" xmlns="http://www.w3.org/2000/svg" xmlns:xlink="http://www.w3.org/1999/xlink">
<g opacity="0.2">
<path d="M23.075,21.96L27.2,21.96C29.023,21.96 30.772,22.685 32.061,23.974C33.351,25.263 34.075,27.012 34.075,28.835C34.075,30.659 33.351,32.407 32.061,33.697C30.772,34.986 29.023,35.71 27.2,35.71L23.075,35.71L23.075,21.96Z" transform="rotate(4 28.575 28.835)" fill="#000000"/>
</g>
<g opacity="0.2">
<path d="M23.561,7.859L20.811,7.859C18.988,7.859 17.239,8.583 15.95,9.872C14.66,11.162 13.936,12.91 13.936,14.734C13.936,16.557 14.66,18.306 15.95,19.595C17.239,20.884 18.988,21.609 20.811,21.609L23.561,21.609L23.561,7.859Z" transform="rotate(4 18.749 14.734)" fill="#000000"/>
</g>
<path d="M25.318,3.897C25.318,2.793 24.423,1.897 23.318,1.897C22.214,1.897 21.318,2.793 21.318,3.897L25.318,3.897ZM21.318,39.647C21.318,40.752 22.214,41.647 23.318,41.647C24.423,41.647 25.318,40.752 25.318,39.647L21.318,39.647ZM21.318,3.897L21.318,39.647L25.318,39.647L25.318,3.897L21.318,3.897Z" transform="rotate(4 23.318 21.772)" fill="#000000"/>
<path d="M30.943,14.898C30.943,16.002 31.839,16.898 32.943,16.898C34.048,16.898 34.943,16.002 34.943,14.898L30.943,14.898ZM26.068,8.023L26.068,6.023L26.068,8.023ZM14.318,28.648C14.318,27.543 13.423,26.648 12.318,26.648C11.214,26.648 10.318,27.543 10.318,28.648L14.318,28.648ZM34.943,14.898C34.943,13.732 34.714,12.578 34.268,11.501L30.572,13.032C30.817,13.623 30.943,14.257 30.943,14.898L34.943,14.898ZM34.268,11.501C33.822,10.424 33.168,9.446 32.344,8.622L29.515,11.45C29.968,11.903 30.327,12.44 30.572,13.032L34.268,11.501ZM32.344,8.622C31.52,7.798 30.541,7.144 29.465,6.698L27.934,10.394C28.525,10.639 29.063,10.998 29.515,11.45L32.344,8.622ZM29.465,6.698C28.388,6.252 27.234,6.023 26.068,6.023L26.068,10.023C26.708,10.023 27.342,10.149 27.934,10.394L29.465,6.698ZM26.068,6.023L20.568,6.023L20.568,10.023L26.068,10.023L26.068,6.023ZM20.568,6.023C18.214,6.023 15.957,6.958 14.293,8.622L17.121,11.45C18.035,10.536 19.275,10.023 20.568,10.023L20.568,6.023ZM14.293,8.622C12.628,10.286 11.693,12.544 11.693,14.898L15.693,14.898C15.693,13.605 16.207,12.365 17.121,11.45L14.293,8.622ZM11.693,14.898C11.693,17.251 12.628,19.509 14.293,21.173L17.121,18.345C16.207,17.43 15.693,16.19 15.693,14.898L11.693,14.898ZM14.293,21.173C15.957,22.837 18.214,23.773 20.568,23.773L20.568,19.773C19.275,19.773 18.035,19.259 17.121,18.345L14.293,21.173ZM20.568,23.773L27.443,23.773L27.443,19.773L20.568,19.773L20.568,23.773ZM27.443,23.773C28.736,23.773 29.976,24.286 30.89,25.2L33.719,22.372C32.054,20.708 29.797,19.773 27.443,19.773L27.443,23.773ZM30.89,25.2C31.805,26.115 32.318,27.355 32.318,28.648L36.318,28.648C36.318,26.294 35.383,24.036 33.719,22.372L30.89,25.2ZM32.318,28.648C32.318,29.941 31.805,31.181 30.89,32.095L33.719,34.923C35.383,33.259 36.318,31.001 36.318,28.648L32.318,28.648ZM30.89,32.095C29.976,33.009 28.736,33.523 27.443,33.523L27.443,37.523C29.797,37.523 32.054,36.588 33.719,34.923L30.89,32.095ZM27.443,33.523L19.193,33.523L19.193,37.523L27.443,37.523L27.443,33.523ZM19.193,33.523C17.9,33.523 16.66,33.009 15.746,32.095L12.918,34.923C14.582,36.588 16.839,37.523 19.193,37.523L19.193,33.523ZM15.746,32.095C14.832,31.181 14.318,29.941 14.318,28.648L10.318,28.648C10.318,31.001 11.253,33.259 12.918,34.923L15.746,32.095Z" transform="rotate(4 23.318 21.773)" fill="#000000"/>
</svg>
