<svg width="46" height="46" viewBox="0 0 46 46" fill="none" xmlns="http://www.w3.org/2000/svg" xmlns:xlink="http://www.w3.org/1999/xlink">
<g opacity="0.2">
<path d="M22.722,23.32L26.847,23.32C28.671,23.32 30.419,24.044 31.709,25.334C32.998,26.623 33.722,28.372 33.722,30.195C33.722,32.018 32.998,33.767 31.709,35.056C30.419,36.346 28.671,37.07 26.847,37.07L22.722,37.07L22.722,23.32Z" transform="rotate(4 28.222 30.195)" fill="#000000"/>
</g>
<g opacity="0.2">
<path d="M23.209,9.218L20.459,9.218C18.635,9.218 16.887,9.943 15.597,11.232C14.308,12.521 13.584,14.27 13.584,16.093C13.584,17.917 14.308,19.665 15.597,20.955C16.887,22.244 18.635,22.968 20.459,22.968L23.209,22.968L23.209,9.218Z" transform="rotate(4 18.396 16.093)" fill="#000000"/>
</g>
<path d="M24.966,5.257C24.966,4.153 24.07,3.257 22.966,3.257C21.861,3.257 20.966,4.153 20.966,5.257L24.966,5.257ZM20.966,41.007C20.966,42.112 21.861,43.007 22.966,43.007C24.07,43.007 24.966,42.112 24.966,41.007L20.966,41.007ZM20.966,5.257L20.966,41.007L24.966,41.007L24.966,5.257L20.966,5.257Z" transform="rotate(4 22.966 23.132)" fill="#000000"/>
<path d="M30.591,16.257C30.591,17.362 31.486,18.257 32.591,18.257C33.695,18.257 34.591,17.362 34.591,16.257L30.591,16.257ZM25.716,9.382L25.716,7.382L25.716,9.382ZM13.966,30.007C13.966,28.903 13.07,28.007 11.966,28.007C10.861,28.007 9.966,28.903 9.966,30.007L13.966,30.007ZM34.591,16.257C34.591,15.092 34.361,13.938 33.915,12.861L30.219,14.392C30.464,14.983 30.591,15.617 30.591,16.257L34.591,16.257ZM33.915,12.861C33.469,11.784 32.815,10.806 31.991,9.982L29.163,12.81C29.615,13.263 29.974,13.8 30.219,14.392L33.915,12.861ZM31.991,9.982C31.167,9.157 30.189,8.504 29.112,8.058L27.581,11.753C28.173,11.998 28.71,12.357 29.163,12.81L31.991,9.982ZM29.112,8.058C28.035,7.612 26.881,7.382 25.716,7.382L25.716,11.382C26.356,11.382 26.99,11.508 27.581,11.753L29.112,8.058ZM25.716,7.382L20.216,7.382L20.216,11.382L25.716,11.382L25.716,7.382ZM20.216,7.382C17.862,7.382 15.604,8.317 13.94,9.982L16.768,12.81C17.683,11.896 18.923,11.382 20.216,11.382L20.216,7.382ZM13.94,9.982C12.276,11.646 11.341,13.903 11.341,16.257L15.341,16.257C15.341,14.964 15.854,13.724 16.768,12.81L13.94,9.982ZM11.341,16.257C11.341,18.611 12.276,20.868 13.94,22.533L16.768,19.704C15.854,18.79 15.341,17.55 15.341,16.257L11.341,16.257ZM13.94,22.533C15.604,24.197 17.862,25.132 20.216,25.132L20.216,21.132C18.923,21.132 17.683,20.619 16.768,19.704L13.94,22.533ZM20.216,25.132L27.091,25.132L27.091,21.132L20.216,21.132L20.216,25.132ZM27.091,25.132C28.384,25.132 29.623,25.646 30.538,26.56L33.366,23.732C31.702,22.067 29.444,21.132 27.091,21.132L27.091,25.132ZM30.538,26.56C31.452,27.474 31.966,28.714 31.966,30.007L35.966,30.007C35.966,27.653 35.031,25.396 33.366,23.732L30.538,26.56ZM31.966,30.007C31.966,31.3 31.452,32.54 30.538,33.454L33.366,36.283C35.031,34.618 35.966,32.361 35.966,30.007L31.966,30.007ZM30.538,33.454C29.623,34.369 28.384,34.882 27.091,34.882L27.091,38.882C29.444,38.882 31.702,37.947 33.366,36.283L30.538,33.454ZM27.091,34.882L18.841,34.882L18.841,38.882L27.091,38.882L27.091,34.882ZM18.841,34.882C17.548,34.882 16.308,34.369 15.393,33.454L12.565,36.283C14.229,37.947 16.487,38.882 18.841,38.882L18.841,34.882ZM15.393,33.454C14.479,32.54 13.966,31.3 13.966,30.007L9.966,30.007C9.966,32.361 10.901,34.618 12.565,36.283L15.393,33.454Z" transform="rotate(4 22.966 23.132)" fill="#000000"/>
</svg>
