<svg width="44" height="44" viewBox="0 0 44 44" fill="none" xmlns="http://www.w3.org/2000/svg" xmlns:xlink="http://www.w3.org/1999/xlink">
<g opacity="0.2">
<path d="M22,22L26.125,22C27.948,22 29.697,22.724 30.986,24.014C32.276,25.303 33,27.052 33,28.875C33,30.698 32.276,32.447 30.986,33.736C29.697,35.026 27.948,35.75 26.125,35.75L22,35.75L22,22Z" fill="#000000"/>
</g>
<g opacity="0.2">
<path d="M22,8.25L19.25,8.25C17.427,8.25 15.678,8.974 14.389,10.264C13.099,11.553 12.375,13.302 12.375,15.125C12.375,16.948 13.099,18.697 14.389,19.986C15.678,21.276 17.427,22 19.25,22L22,22L22,8.25Z" fill="#000000"/>
</g>
<line x1="20" y1="4.125" x2="20" y2="39.875" stroke="#000000" stroke-width="2" stroke-miterlimit="3.999327" stroke-linecap="round" stroke-linejoin="round"/>
<path d="M29.625,15.125C29.625,16.23 30.52,17.125 31.625,17.125C32.73,17.125 33.625,16.23 33.625,15.125L29.625,15.125ZM24.75,8.25L24.75,6.25L24.75,8.25ZM13,28.875C13,27.77 12.105,26.875 11,26.875C9.895,26.875 9,27.77 9,28.875L13,28.875ZM33.625,15.125C33.625,13.96 33.395,12.805 32.949,11.729L29.254,13.259C29.499,13.851 29.625,14.485 29.625,15.125L33.625,15.125ZM32.949,11.729C32.503,10.652 31.85,9.674 31.026,8.849L28.197,11.678C28.65,12.131 29.009,12.668 29.254,13.259L32.949,11.729ZM31.026,8.849C30.201,8.025 29.223,7.372 28.146,6.926L26.616,10.621C27.207,10.866 27.744,11.225 28.197,11.678L31.026,8.849ZM28.146,6.926C27.07,6.48 25.915,6.25 24.75,6.25L24.75,10.25C25.39,10.25 26.024,10.376 26.616,10.621L28.146,6.926ZM24.75,6.25L19.25,6.25L19.25,10.25L24.75,10.25L24.75,6.25ZM19.25,6.25C16.896,6.25 14.639,7.185 12.974,8.849L15.803,11.678C16.717,10.764 17.957,10.25 19.25,10.25L19.25,6.25ZM12.974,8.849C11.31,10.514 10.375,12.771 10.375,15.125L14.375,15.125C14.375,13.832 14.889,12.592 15.803,11.678L12.974,8.849ZM10.375,15.125C10.375,17.479 11.31,19.736 12.974,21.401L15.803,18.572C14.889,17.658 14.375,16.418 14.375,15.125L10.375,15.125ZM12.974,21.401C14.639,23.065 16.896,24 19.25,24L19.25,20C17.957,20 16.717,19.486 15.803,18.572L12.974,21.401ZM19.25,24L26.125,24L26.125,20L19.25,20L19.25,24ZM26.125,24C27.418,24 28.658,24.514 29.572,25.428L32.401,22.599C30.736,20.935 28.479,20 26.125,20L26.125,24ZM29.572,25.428C30.486,26.342 31,27.582 31,28.875L35,28.875C35,26.521 34.065,24.264 32.401,22.599L29.572,25.428ZM31,28.875C31,30.168 30.486,31.408 29.572,32.322L32.401,35.151C34.065,33.486 35,31.229 35,28.875L31,28.875ZM29.572,32.322C28.658,33.236 27.418,33.75 26.125,33.75L26.125,37.75C28.479,37.75 30.736,36.815 32.401,35.151L29.572,32.322ZM26.125,33.75L17.875,33.75L17.875,37.75L26.125,37.75L26.125,33.75ZM17.875,33.75C16.582,33.75 15.342,33.236 14.428,32.322L11.599,35.151C13.264,36.815 15.521,37.75 17.875,37.75L17.875,33.75ZM14.428,32.322C13.514,31.408 13,30.168 13,28.875L9,28.875C9,31.229 9.935,33.486 11.599,35.151L14.428,32.322Z" fill="#000000"/>
</svg>
