<svg width="46" height="48" viewBox="0 0 46 48" fill="none" xmlns="http://www.w3.org/2000/svg" xmlns:xlink="http://www.w3.org/1999/xlink">
<g opacity="0.2">
<path d="M17.557,17.77L15.556,28.77L26.556,28.77L28.557,17.77L17.557,17.77Z" transform="rotate(4 22.057 23.27)" fill="#000000"/>
</g>
<path d="M8.498,15.822C7.393,15.822 6.498,16.717 6.498,17.822C6.498,18.926 7.393,19.822 8.498,19.822L8.498,15.822ZM38.748,19.822C39.852,19.822 40.748,18.926 40.748,17.822C40.748,16.717 39.852,15.822 38.748,15.822L38.748,19.822ZM8.498,19.822L38.748,19.822L38.748,15.822L8.498,15.822L8.498,19.822Z" transform="rotate(4 23.623 17.822)" fill="#000000"/>
<path d="M32.271,8.695C32.469,7.608 31.748,6.567 30.661,6.37C29.574,6.172 28.533,6.893 28.335,7.98L32.271,8.695ZM22.835,38.23C22.638,39.316 23.359,40.358 24.445,40.555C25.532,40.753 26.573,40.032 26.771,38.945L22.835,38.23ZM28.335,7.98L22.835,38.23L26.771,38.945L32.271,8.695L28.335,7.98Z" transform="rotate(4 27.553 23.462)" fill="#000000"/>
<path d="M21.278,8.311C21.475,7.224 20.755,6.183 19.668,5.986C18.581,5.788 17.54,6.509 17.342,7.596L21.278,8.311ZM11.842,37.846C11.645,38.932 12.366,39.974 13.452,40.171C14.539,40.369 15.58,39.648 15.778,38.561L11.842,37.846ZM17.342,7.596L11.842,37.846L15.778,38.561L21.278,8.311L17.342,7.596Z" transform="rotate(4 16.56 23.078)" fill="#000000"/>
<path d="M5.366,26.719C4.261,26.719 3.366,27.615 3.366,28.719C3.366,29.824 4.261,30.719 5.366,30.719L5.366,26.719ZM35.616,30.719C36.72,30.719 37.616,29.824 37.616,28.719C37.616,27.615 36.72,26.719 35.616,26.719L35.616,30.719ZM5.366,30.719L35.616,30.719L35.616,26.719L5.366,26.719L5.366,30.719Z" transform="rotate(4 20.491 28.719)" fill="#000000"/>
</svg>
