<svg width="46" height="46" viewBox="0 0 46 46" fill="none" xmlns="http://www.w3.org/2000/svg" xmlns:xlink="http://www.w3.org/1999/xlink">
<g opacity="0.2">
<path d="M18.618,17.144L16.618,28.144L27.618,28.144L29.618,17.144L18.618,17.144Z" transform="rotate(4 23.118 22.644)" fill="#000000"/>
</g>
<path d="M9.559,15.195C8.455,15.195 7.559,16.09 7.559,17.195C7.559,18.3 8.455,19.195 9.559,19.195L9.559,15.195ZM39.809,19.195C40.914,19.195 41.809,18.3 41.809,17.195C41.809,16.09 40.914,15.195 39.809,15.195L39.809,19.195ZM9.559,19.195L39.809,19.195L39.809,15.195L9.559,15.195L9.559,19.195Z" transform="rotate(4 24.684 17.195)" fill="#000000"/>
<path d="M33.332,8.068C33.53,6.982 32.809,5.94 31.722,5.743C30.636,5.545 29.594,6.266 29.397,7.353L33.332,8.068ZM23.897,37.603C23.699,38.69 24.42,39.731 25.507,39.928C26.594,40.126 27.635,39.405 27.832,38.318L23.897,37.603ZM29.397,7.353L23.897,37.603L27.832,38.318L33.332,8.068L29.397,7.353Z" transform="rotate(4 28.615 22.836)" fill="#000000"/>
<path d="M22.339,7.684C22.537,6.598 21.816,5.557 20.729,5.359C19.642,5.161 18.601,5.882 18.404,6.969L22.339,7.684ZM12.904,37.219C12.706,38.306 13.427,39.347 14.514,39.544C15.6,39.742 16.641,39.021 16.839,37.934L12.904,37.219ZM18.404,6.969L12.904,37.219L16.839,37.934L22.339,7.684L18.404,6.969Z" transform="rotate(4 17.621 22.452)" fill="#000000"/>
<path d="M6.427,26.092C5.322,26.092 4.427,26.988 4.427,28.092C4.427,29.197 5.322,30.092 6.427,30.092L6.427,26.092ZM36.677,30.092C37.781,30.092 38.677,29.197 38.677,28.092C38.677,26.988 37.781,26.092 36.677,26.092L36.677,30.092ZM6.427,30.092L36.677,30.092L36.677,26.092L6.427,26.092L6.427,30.092Z" transform="rotate(4 21.552 28.092)" fill="#000000"/>
</svg>
