<svg width="44" height="44" viewBox="0 0 44 44" fill="none" xmlns="http://www.w3.org/2000/svg" xmlns:xlink="http://www.w3.org/1999/xlink">
<g opacity="0.2">
<path d="M17.5,16.5L15.5,27.5L26.5,27.5L28.5,16.5L17.5,16.5Z" fill="#000000"/>
</g>
<line x1="8.25" y1="14.5" x2="38.5" y2="14.5" stroke="#000000" stroke-width="2" stroke-miterlimit="3.999327" stroke-linecap="round" stroke-linejoin="round"/>
<path d="M32.218,7.233C32.415,6.146 31.695,5.105 30.608,4.907C29.521,4.71 28.48,5.43 28.282,6.517L32.218,7.233ZM22.782,36.767C22.585,37.854 23.305,38.895 24.392,39.093C25.479,39.29 26.52,38.57 26.718,37.483L22.782,36.767ZM28.282,6.517L22.782,36.767L26.718,37.483L32.218,7.233L28.282,6.517Z" fill="#000000"/>
<path d="M21.218,7.233C21.415,6.146 20.695,5.105 19.608,4.907C18.521,4.71 17.48,5.43 17.282,6.517L21.218,7.233ZM11.782,36.767C11.585,37.854 12.305,38.895 13.392,39.093C14.479,39.29 15.52,38.57 15.718,37.483L11.782,36.767ZM17.282,6.517L11.782,36.767L15.718,37.483L21.218,7.233L17.282,6.517Z" fill="#000000"/>
<line x1="5.5" y1="25.5" x2="35.75" y2="25.5" stroke="#000000" stroke-width="2" stroke-miterlimit="3.999327" stroke-linecap="round" stroke-linejoin="round"/>
</svg>
