<svg width="44" height="44" viewBox="0 0 44 44" fill="none" xmlns="http://www.w3.org/2000/svg" xmlns:xlink="http://www.w3.org/1999/xlink">
<g opacity="0.2">
<path d="M35.75,6.875L8.25,6.875C7.491,6.875 6.875,7.491 6.875,8.25L6.875,35.75C6.875,36.509 7.491,37.125 8.25,37.125L35.75,37.125C36.509,37.125 37.125,36.509 37.125,35.75L37.125,8.25C37.125,7.491 36.509,6.875 35.75,6.875Z" fill="#000000"/>
</g>
<path d="M8.25,8.875L35.75,8.875L35.75,4.875L8.25,4.875L8.25,8.875ZM35.75,8.875C35.405,8.875 35.125,8.595 35.125,8.25L39.125,8.25C39.125,6.386 37.614,4.875 35.75,4.875L35.75,8.875ZM35.125,8.25L35.125,35.75L39.125,35.75L39.125,8.25L35.125,8.25ZM35.125,35.75C35.125,35.405 35.405,35.125 35.75,35.125L35.75,39.125C37.614,39.125 39.125,37.614 39.125,35.75L35.125,35.75ZM35.75,35.125L8.25,35.125L8.25,39.125L35.75,39.125L35.75,35.125ZM8.25,35.125C8.595,35.125 8.875,35.405 8.875,35.75L4.875,35.75C4.875,37.614 6.386,39.125 8.25,39.125L8.25,35.125ZM8.875,35.75L8.875,8.25L4.875,8.25L4.875,35.75L8.875,35.75ZM8.875,8.25C8.875,8.595 8.595,8.875 8.25,8.875L8.25,4.875C6.386,4.875 4.875,6.386 4.875,8.25L8.875,8.25Z" fill="#000000"/>
<line x1="15.125" y1="20" x2="28.875" y2="20" stroke="#000000" stroke-width="2" stroke-miterlimit="3.999327" stroke-linecap="round" stroke-linejoin="round"/>
</svg>
