<svg width="46" height="46" viewBox="0 0 46 46" fill="none" xmlns="http://www.w3.org/2000/svg" xmlns:xlink="http://www.w3.org/1999/xlink">
<g opacity="0.2">
<path d="M36.667,6.94L9.167,6.94C8.407,6.94 7.792,7.556 7.792,8.315L7.792,35.815C7.792,36.575 8.407,37.19 9.167,37.19L36.667,37.19C37.426,37.19 38.042,36.575 38.042,35.815L38.042,8.315C38.042,7.556 37.426,6.94 36.667,6.94Z" transform="rotate(-4 22.917 22.065)" fill="#000000"/>
</g>
<path d="M9.167,8.94L36.667,8.94L36.667,4.94L9.167,4.94L9.167,8.94ZM36.667,8.94C36.321,8.94 36.042,8.66 36.042,8.315L40.042,8.315C40.042,6.451 38.531,4.94 36.667,4.94L36.667,8.94ZM36.042,8.315L36.042,35.815L40.042,35.815L40.042,8.315L36.042,8.315ZM36.042,35.815C36.042,35.47 36.321,35.19 36.667,35.19L36.667,39.19C38.531,39.19 40.042,37.679 40.042,35.815L36.042,35.815ZM36.667,35.19L9.167,35.19L9.167,39.19L36.667,39.19L36.667,35.19ZM9.167,35.19C9.512,35.19 9.792,35.47 9.792,35.815L5.792,35.815C5.792,37.679 7.303,39.19 9.167,39.19L9.167,35.19ZM9.792,35.815L9.792,8.315L5.792,8.315L5.792,35.815L9.792,35.815ZM9.792,8.315C9.792,8.66 9.512,8.94 9.167,8.94L9.167,4.94C7.303,4.94 5.792,6.451 5.792,8.315L9.792,8.315Z" transform="rotate(-4 22.917 22.065)" fill="#000000"/>
<path d="M16.041,20.065C14.937,20.065 14.041,20.961 14.041,22.065C14.041,23.17 14.937,24.065 16.041,24.065L16.041,20.065ZM29.791,24.065C30.896,24.065 31.791,23.17 31.791,22.065C31.791,20.961 30.896,20.065 29.791,20.065L29.791,24.065ZM16.041,24.065L29.791,24.065L29.791,20.065L16.041,20.065L16.041,24.065Z" transform="rotate(-4 22.916 22.065)" fill="#000000"/>
<path d="M24.916,15.19C24.916,14.086 24.021,13.19 22.916,13.19C21.812,13.19 20.916,14.086 20.916,15.19L24.916,15.19ZM20.916,28.94C20.916,30.045 21.812,30.94 22.916,30.94C24.021,30.94 24.916,30.045 24.916,28.94L20.916,28.94ZM20.916,15.19L20.916,28.94L24.916,28.94L24.916,15.19L20.916,15.19Z" transform="rotate(-4 22.916 22.065)" fill="#000000"/>
</svg>
