<svg width="46" height="48" viewBox="0 0 46 48" fill="none" xmlns="http://www.w3.org/2000/svg" xmlns:xlink="http://www.w3.org/1999/xlink">
<g opacity="0.2">
<path d="M36.718,8.626L9.218,8.626C8.459,8.626 7.843,9.242 7.843,10.001L7.843,37.501C7.843,38.26 8.459,38.876 9.218,38.876L36.718,38.876C37.478,38.876 38.093,38.26 38.093,37.501L38.093,10.001C38.093,9.242 37.478,8.626 36.718,8.626Z" transform="rotate(-4 22.968 23.751)" fill="#000000"/>
</g>
<path d="M9.218,10.626L36.718,10.626L36.718,6.626L9.218,6.626L9.218,10.626ZM36.718,10.626C36.373,10.626 36.093,10.346 36.093,10.001L40.093,10.001C40.093,8.137 38.582,6.626 36.718,6.626L36.718,10.626ZM36.093,10.001L36.093,37.501L40.093,37.501L40.093,10.001L36.093,10.001ZM36.093,37.501C36.093,37.156 36.373,36.876 36.718,36.876L36.718,40.876C38.582,40.876 40.093,39.365 40.093,37.501L36.093,37.501ZM36.718,36.876L9.218,36.876L9.218,40.876L36.718,40.876L36.718,36.876ZM9.218,36.876C9.564,36.876 9.843,37.156 9.843,37.501L5.843,37.501C5.843,39.365 7.355,40.876 9.218,40.876L9.218,36.876ZM9.843,37.501L9.843,10.001L5.843,10.001L5.843,37.501L9.843,37.501ZM9.843,10.001C9.843,10.346 9.564,10.626 9.218,10.626L9.218,6.626C7.355,6.626 5.843,8.137 5.843,10.001L9.843,10.001Z" transform="rotate(-4 22.968 23.751)" fill="#000000"/>
<path d="M16.094,21.751C14.989,21.751 14.094,22.646 14.094,23.751C14.094,24.856 14.989,25.751 16.094,25.751L16.094,21.751ZM29.844,25.751C30.948,25.751 31.844,24.856 31.844,23.751C31.844,22.646 30.948,21.751 29.844,21.751L29.844,25.751ZM16.094,25.751L29.844,25.751L29.844,21.751L16.094,21.751L16.094,25.751Z" transform="rotate(-4 22.969 23.751)" fill="#000000"/>
<path d="M24.969,16.876C24.969,15.771 24.073,14.876 22.969,14.876C21.864,14.876 20.969,15.771 20.969,16.876L24.969,16.876ZM20.969,30.626C20.969,31.731 21.864,32.626 22.969,32.626C24.073,32.626 24.969,31.731 24.969,30.626L20.969,30.626ZM20.969,16.876L20.969,30.626L24.969,30.626L24.969,16.876L20.969,16.876Z" transform="rotate(-4 22.969 23.751)" fill="#000000"/>
</svg>
