<svg width="44" height="44" viewBox="0 0 44 44" fill="none" xmlns="http://www.w3.org/2000/svg" xmlns:xlink="http://www.w3.org/1999/xlink">
<g opacity="0.2">
<path d="M9.281,6.875L34.719,6.875C35.017,6.875 35.308,6.972 35.546,7.152C35.785,7.332 35.958,7.585 36.04,7.872L38.5,16.5L5.5,16.5L7.965,7.872C8.047,7.586 8.219,7.334 8.457,7.154C8.694,6.974 8.983,6.876 9.281,6.875Z" fill="#000000"/>
</g>
<g opacity="0.2">
<path d="M16.5,16.5L16.5,19.25C16.5,20.709 15.921,22.108 14.889,23.139C13.858,24.171 12.459,24.75 11,24.75C9.541,24.75 8.142,24.171 7.111,23.139C6.079,22.108 5.5,20.709 5.5,19.25L5.5,16.5L16.5,16.5Z" fill="#000000"/>
</g>
<g opacity="0.2">
<path d="M38.5,16.5L38.5,19.25C38.5,20.709 37.921,22.108 36.889,23.139C35.858,24.171 34.459,24.75 33,24.75C31.541,24.75 30.142,24.171 29.111,23.139C28.079,22.108 27.5,20.709 27.5,19.25L27.5,16.5L38.5,16.5Z" fill="#000000"/>
</g>
<path d="M10.25,23.992C10.25,22.887 9.355,21.992 8.25,21.992C7.145,21.992 6.25,22.887 6.25,23.992L10.25,23.992ZM8.25,37.125L6.25,37.125C6.25,38.23 7.145,39.125 8.25,39.125L8.25,37.125ZM35.75,37.125L35.75,39.125C36.855,39.125 37.75,38.23 37.75,37.125L35.75,37.125ZM37.75,23.992C37.75,22.887 36.855,21.992 35.75,21.992C34.645,21.992 33.75,22.887 33.75,23.992L37.75,23.992ZM6.25,23.992L6.25,37.125L10.25,37.125L10.25,23.992L6.25,23.992ZM8.25,39.125L35.75,39.125L35.75,35.125L8.25,35.125L8.25,39.125ZM37.75,37.125L37.75,23.992L33.75,23.992L33.75,37.125L37.75,37.125Z" fill="#000000"/>
<path d="M9.281,6.875L9.281,4.875L9.273,4.875L9.281,6.875ZM34.719,6.875L34.719,4.875L34.719,4.875L34.719,6.875ZM36.04,7.872L37.964,7.324L37.963,7.322L36.04,7.872ZM38.5,16.5L38.5,18.5C39.127,18.5 39.718,18.206 40.096,17.705C40.474,17.204 40.595,16.555 40.423,15.952L38.5,16.5ZM5.5,16.5L3.577,15.951C3.405,16.554 3.525,17.203 3.903,17.704C4.281,18.205 4.872,18.5 5.5,18.5L5.5,16.5ZM7.965,7.872L6.042,7.322L6.042,7.323L7.965,7.872ZM9.281,8.875L34.719,8.875L34.719,4.875L9.281,4.875L9.281,8.875ZM34.718,8.875C34.583,8.875 34.451,8.831 34.342,8.749L36.751,5.555C36.165,5.114 35.452,4.875 34.719,4.875L34.718,8.875ZM34.342,8.749C34.234,8.667 34.155,8.552 34.118,8.422L37.963,7.322C37.762,6.617 37.336,5.997 36.751,5.555L34.342,8.749ZM34.117,8.42L36.577,17.048L40.423,15.952L37.964,7.324L34.117,8.42ZM38.5,14.5L5.5,14.5L5.5,18.5L38.5,18.5L38.5,14.5ZM7.423,17.049L9.888,8.421L6.042,7.323L3.577,15.951L7.423,17.049ZM9.888,8.422C9.85,8.552 9.772,8.667 9.664,8.748L7.249,5.559C6.667,6.001 6.243,6.619 6.042,7.322L9.888,8.422ZM9.664,8.748C9.556,8.83 9.424,8.874 9.289,8.875L9.273,4.875C8.542,4.878 7.832,5.118 7.249,5.559L9.664,8.748Z" fill="#000000"/>
<path d="M18.5,16.5C18.5,15.395 17.605,14.5 16.5,14.5C15.395,14.5 14.5,15.395 14.5,16.5L18.5,16.5ZM16.5,19.25L18.5,19.25L16.5,19.25ZM5.5,19.25L3.5,19.25L5.5,19.25ZM7.5,16.5C7.5,15.395 6.605,14.5 5.5,14.5C4.395,14.5 3.5,15.395 3.5,16.5L7.5,16.5ZM14.5,16.5L14.5,19.25L18.5,19.25L18.5,16.5L14.5,16.5ZM14.5,19.25C14.5,20.178 14.131,21.068 13.475,21.725L16.303,24.553C17.71,23.147 18.5,21.239 18.5,19.25L14.5,19.25ZM13.475,21.725C12.818,22.381 11.928,22.75 11,22.75L11,26.75C12.989,26.75 14.897,25.96 16.303,24.553L13.475,21.725ZM11,22.75C10.072,22.75 9.181,22.381 8.525,21.725L5.697,24.553C7.103,25.96 9.011,26.75 11,26.75L11,22.75ZM8.525,21.725C7.869,21.068 7.5,20.178 7.5,19.25L3.5,19.25C3.5,21.239 4.29,23.147 5.697,24.553L8.525,21.725ZM7.5,19.25L7.5,16.5L3.5,16.5L3.5,19.25L7.5,19.25Z" fill="#000000"/>
<path d="M29.5,16.5C29.5,15.395 28.605,14.5 27.5,14.5C26.395,14.5 25.5,15.395 25.5,16.5L29.5,16.5ZM16.5,19.25L14.5,19.25L16.5,19.25ZM18.5,16.5C18.5,15.395 17.605,14.5 16.5,14.5C15.395,14.5 14.5,15.395 14.5,16.5L18.5,16.5ZM25.5,16.5L25.5,19.25L29.5,19.25L29.5,16.5L25.5,16.5ZM25.5,19.25C25.5,20.178 25.131,21.068 24.475,21.725L27.303,24.553C28.71,23.147 29.5,21.239 29.5,19.25L25.5,19.25ZM24.475,21.725C23.818,22.381 22.928,22.75 22,22.75L22,26.75C23.989,26.75 25.897,25.96 27.303,24.553L24.475,21.725ZM22,22.75C21.072,22.75 20.181,22.381 19.525,21.725L16.697,24.553C18.103,25.96 20.011,26.75 22,26.75L22,22.75ZM19.525,21.725C18.869,21.068 18.5,20.178 18.5,19.25L14.5,19.25C14.5,21.239 15.29,23.147 16.697,24.553L19.525,21.725ZM18.5,19.25L18.5,16.5L14.5,16.5L14.5,19.25L18.5,19.25Z" fill="#000000"/>
<path d="M40.5,16.5C40.5,15.395 39.605,14.5 38.5,14.5C37.395,14.5 36.5,15.395 36.5,16.5L40.5,16.5ZM29.5,16.5C29.5,15.395 28.605,14.5 27.5,14.5C26.395,14.5 25.5,15.395 25.5,16.5L29.5,16.5ZM36.5,16.5L36.5,19.25L40.5,19.25L40.5,16.5L36.5,16.5ZM36.5,19.25C36.5,20.178 36.131,21.068 35.475,21.725L38.303,24.553C39.71,23.147 40.5,21.239 40.5,19.25L36.5,19.25ZM35.475,21.725C34.818,22.381 33.928,22.75 33,22.75L33,26.75C34.989,26.75 36.897,25.96 38.303,24.553L35.475,21.725ZM33,22.75C32.072,22.75 31.181,22.381 30.525,21.725L27.697,24.553C29.103,25.96 31.011,26.75 33,26.75L33,22.75ZM30.525,21.725C29.869,21.068 29.5,20.178 29.5,19.25L25.5,19.25C25.5,21.239 26.29,23.147 27.697,24.553L30.525,21.725ZM29.5,19.25L29.5,16.5L25.5,16.5L25.5,19.25L29.5,19.25Z" fill="#000000"/>
</svg>
