<svg width="46" height="48" viewBox="0 0 46 48" fill="none" xmlns="http://www.w3.org/2000/svg" xmlns:xlink="http://www.w3.org/1999/xlink">
<g opacity="0.2">
<path d="M10.707,8.444L36.144,8.444C36.443,8.444 36.734,8.542 36.972,8.722C37.211,8.901 37.384,9.154 37.466,9.441L39.926,18.069L6.926,18.069L9.39,9.441C9.472,9.155 9.645,8.903 9.882,8.723C10.12,8.543 10.409,8.446 10.707,8.444Z" transform="rotate(4 23.426 13.257)" fill="#000000"/>
</g>
<g opacity="0.2">
<path d="M17.62,17.68L17.62,20.43C17.62,21.889 17.041,23.288 16.009,24.319C14.978,25.351 13.579,25.93 12.12,25.93C10.662,25.93 9.263,25.351 8.231,24.319C7.2,23.288 6.62,21.889 6.62,20.43L6.62,17.68L17.62,17.68Z" transform="rotate(4 12.12 21.805)" fill="#000000"/>
</g>
<g opacity="0.2">
<path d="M39.607,18.448L39.607,21.198C39.607,22.657 39.027,24.055 37.996,25.087C36.965,26.118 35.566,26.698 34.107,26.698C32.648,26.698 31.249,26.118 30.218,25.087C29.186,24.055 28.607,22.657 28.607,21.198L28.607,18.448L39.607,18.448Z" transform="rotate(4 34.107 22.573)" fill="#000000"/>
</g>
<path d="M11.017,25.55C11.017,24.445 10.122,23.55 9.017,23.55C7.912,23.55 7.017,24.445 7.017,25.55L11.017,25.55ZM9.017,38.683L7.017,38.683C7.017,39.787 7.912,40.683 9.017,40.683L9.017,38.683ZM36.517,38.683L36.517,40.683C37.622,40.683 38.517,39.787 38.517,38.683L36.517,38.683ZM38.517,25.55C38.517,24.445 37.622,23.55 36.517,23.55C35.412,23.55 34.517,24.445 34.517,25.55L38.517,25.55ZM7.017,25.55L7.017,38.683L11.017,38.683L11.017,25.55L7.017,25.55ZM9.017,40.683L36.517,40.683L36.517,36.683L9.017,36.683L9.017,40.683ZM38.517,38.683L38.517,25.55L34.517,25.55L34.517,38.683L38.517,38.683Z" transform="rotate(4 22.767 32.116)" fill="#000000"/>
<path d="M10.707,8.444L10.707,6.444L10.699,6.444L10.707,8.444ZM36.144,8.444L36.145,6.444L36.144,6.444L36.144,8.444ZM37.466,9.441L39.389,8.893L39.389,8.891L37.466,9.441ZM39.926,18.069L39.926,20.069C40.553,20.069 41.144,19.775 41.522,19.274C41.9,18.774 42.021,18.124 41.849,17.521L39.926,18.069ZM6.926,18.069L5.002,17.52C4.83,18.123 4.951,18.773 5.329,19.274C5.707,19.775 6.298,20.069 6.926,20.069L6.926,18.069ZM9.39,9.441L7.467,8.891L7.467,8.892L9.39,9.441ZM10.707,10.444L36.144,10.444L36.144,6.444L10.707,6.444L10.707,10.444ZM36.144,10.444C36.008,10.444 35.876,10.4 35.768,10.318L38.176,7.125C37.591,6.683 36.878,6.445 36.145,6.444L36.144,10.444ZM35.768,10.318C35.659,10.237 35.581,10.122 35.543,9.991L39.389,8.891C39.187,8.186 38.762,7.566 38.176,7.125L35.768,10.318ZM35.543,9.99L38.002,18.618L41.849,17.521L39.389,8.893L35.543,9.99ZM39.926,16.069L6.926,16.069L6.926,20.069L39.926,20.069L39.926,16.069ZM8.849,18.619L11.313,9.991L7.467,8.892L5.002,17.52L8.849,18.619ZM11.313,9.991C11.276,10.121 11.197,10.236 11.09,10.318L8.675,7.129C8.092,7.57 7.668,8.188 7.467,8.891L11.313,9.991ZM11.09,10.318C10.982,10.399 10.85,10.444 10.715,10.444L10.699,6.444C9.968,6.447 9.258,6.687 8.675,7.129L11.09,10.318Z" transform="rotate(4 23.426 13.257)" fill="#000000"/>
<path d="M19.62,17.68C19.62,16.575 18.725,15.68 17.62,15.68C16.516,15.68 15.62,16.575 15.62,17.68L19.62,17.68ZM17.62,20.43L19.62,20.43L17.62,20.43ZM6.62,20.43L4.62,20.43L6.62,20.43ZM8.62,17.68C8.62,16.575 7.725,15.68 6.62,15.68C5.516,15.68 4.62,16.575 4.62,17.68L8.62,17.68ZM15.62,17.68L15.62,20.43L19.62,20.43L19.62,17.68L15.62,17.68ZM15.62,20.43C15.62,21.358 15.252,22.249 14.595,22.905L17.424,25.733C18.83,24.327 19.62,22.419 19.62,20.43L15.62,20.43ZM14.595,22.905C13.939,23.561 13.049,23.93 12.12,23.93L12.12,27.93C14.109,27.93 16.017,27.14 17.424,25.733L14.595,22.905ZM12.12,23.93C11.192,23.93 10.302,23.561 9.645,22.905L6.817,25.733C8.224,27.14 10.131,27.93 12.12,27.93L12.12,23.93ZM9.645,22.905C8.989,22.249 8.62,21.358 8.62,20.43L4.62,20.43C4.62,22.419 5.411,24.327 6.817,25.733L9.645,22.905ZM8.62,20.43L8.62,17.68L4.62,17.68L4.62,20.43L8.62,20.43Z" transform="rotate(4 12.12 21.805)" fill="#000000"/>
<path d="M30.614,18.064C30.614,16.959 29.718,16.064 28.614,16.064C27.509,16.064 26.614,16.959 26.614,18.064L30.614,18.064ZM17.614,20.814L15.614,20.814L17.614,20.814ZM19.614,18.064C19.614,16.959 18.718,16.064 17.614,16.064C16.509,16.064 15.614,16.959 15.614,18.064L19.614,18.064ZM26.614,18.064L26.614,20.814L30.614,20.814L30.614,18.064L26.614,18.064ZM26.614,20.814C26.614,21.742 26.245,22.632 25.588,23.289L28.417,26.117C29.823,24.711 30.614,22.803 30.614,20.814L26.614,20.814ZM25.588,23.289C24.932,23.945 24.042,24.314 23.114,24.314L23.114,28.314C25.103,28.314 27.01,27.524 28.417,26.117L25.588,23.289ZM23.114,24.314C22.185,24.314 21.295,23.945 20.639,23.289L17.81,26.117C19.217,27.524 21.124,28.314 23.114,28.314L23.114,24.314ZM20.639,23.289C19.982,22.632 19.614,21.742 19.614,20.814L15.614,20.814C15.614,22.803 16.404,24.711 17.81,26.117L20.639,23.289ZM19.614,20.814L19.614,18.064L15.614,18.064L15.614,20.814L19.614,20.814Z" transform="rotate(4 23.114 22.189)" fill="#000000"/>
<path d="M41.607,18.448C41.607,17.343 40.712,16.448 39.607,16.448C38.502,16.448 37.607,17.343 37.607,18.448L41.607,18.448ZM30.607,18.448C30.607,17.343 29.712,16.448 28.607,16.448C27.502,16.448 26.607,17.343 26.607,18.448L30.607,18.448ZM37.607,18.448L37.607,21.198L41.607,21.198L41.607,18.448L37.607,18.448ZM37.607,21.198C37.607,22.126 37.238,23.016 36.582,23.673L39.41,26.501C40.817,25.095 41.607,23.187 41.607,21.198L37.607,21.198ZM36.582,23.673C35.925,24.329 35.035,24.698 34.107,24.698L34.107,28.698C36.096,28.698 38.004,27.908 39.41,26.501L36.582,23.673ZM34.107,24.698C33.179,24.698 32.288,24.329 31.632,23.673L28.804,26.501C30.21,27.908 32.118,28.698 34.107,28.698L34.107,24.698ZM31.632,23.673C30.976,23.016 30.607,22.126 30.607,21.198L26.607,21.198C26.607,23.187 27.397,25.095 28.804,26.501L31.632,23.673ZM30.607,21.198L30.607,18.448L26.607,18.448L26.607,21.198L30.607,21.198Z" transform="rotate(4 34.107 22.573)" fill="#000000"/>
</svg>
