<svg width="46" height="46" viewBox="0 0 46 46" fill="none" xmlns="http://www.w3.org/2000/svg" xmlns:xlink="http://www.w3.org/1999/xlink">
<g opacity="0.2">
<path d="M14.682,23.058L30.213,23.058L22.447,6.558L14.682,23.058Z" transform="rotate(-4 22.447 14.808)" fill="#000000"/>
</g>
<path d="M31.758,30.783C32.228,31.782 33.42,32.211 34.419,31.741C35.418,31.27 35.847,30.079 35.377,29.079L31.758,30.783ZM22.567,6.556L24.377,5.704C24.047,5.003 23.342,4.556 22.567,4.556C21.793,4.556 21.088,5.003 20.758,5.704L22.567,6.556ZM9.758,29.079C9.287,30.079 9.716,31.27 10.716,31.741C11.715,32.211 12.907,31.782 13.377,30.783L9.758,29.079ZM35.377,29.079L24.377,5.704L20.758,7.408L31.758,30.783L35.377,29.079ZM20.758,5.704L9.758,29.079L13.377,30.783L24.377,7.408L20.758,5.704Z" transform="rotate(-4 22.567 18.243)" fill="#000000"/>
<path d="M30.501,25.053C31.605,25.053 32.501,24.158 32.501,23.053C32.501,21.948 31.605,21.053 30.501,21.053L30.501,25.053ZM14.97,21.053C13.865,21.053 12.97,21.948 12.97,23.053C12.97,24.158 13.865,25.053 14.97,25.053L14.97,21.053ZM30.501,21.053L14.97,21.053L14.97,25.053L30.501,25.053L30.501,21.053Z" transform="rotate(-4 22.735 23.053)" fill="#000000"/>
<path d="M8.138,36.169C7.034,36.169 6.138,37.064 6.138,38.169C6.138,39.273 7.034,40.169 8.138,40.169L8.138,36.169ZM38.388,40.169C39.493,40.169 40.388,39.273 40.388,38.169C40.388,37.064 39.493,36.169 38.388,36.169L38.388,40.169ZM8.138,40.169L38.388,40.169L38.388,36.169L8.138,36.169L8.138,40.169Z" transform="rotate(-4 23.263 38.169)" fill="#000000"/>
</svg>
