<svg width="46" height="46" viewBox="0 0 46 46" fill="none" xmlns="http://www.w3.org/2000/svg" xmlns:xlink="http://www.w3.org/1999/xlink">
<g opacity="0.2">
<path d="M13.921,22.012L29.452,22.012L21.687,5.512L13.921,22.012Z" transform="rotate(-4 21.687 13.762)" fill="#000000"/>
</g>
<path d="M30.997,29.737C31.467,30.736 32.659,31.165 33.658,30.695C34.658,30.225 35.087,29.033 34.616,28.034L30.997,29.737ZM21.807,5.51L23.616,4.659C23.286,3.958 22.581,3.51 21.807,3.51C21.032,3.51 20.327,3.958 19.997,4.659L21.807,5.51ZM8.997,28.034C8.527,29.033 8.956,30.225 9.955,30.695C10.955,31.165 12.146,30.736 12.616,29.737L8.997,28.034ZM34.616,28.034L23.616,4.659L19.997,6.362L30.997,29.737L34.616,28.034ZM19.997,4.659L8.997,28.034L12.616,29.737L23.616,6.362L19.997,4.659Z" transform="rotate(-4 21.807 17.198)" fill="#000000"/>
<path d="M29.74,24.007C30.845,24.007 31.74,23.112 31.74,22.007C31.74,20.903 30.845,20.007 29.74,20.007L29.74,24.007ZM14.209,20.007C13.105,20.007 12.209,20.903 12.209,22.007C12.209,23.112 13.105,24.007 14.209,24.007L14.209,20.007ZM29.74,20.007L14.209,20.007L14.209,24.007L29.74,24.007L29.74,20.007Z" transform="rotate(-4 21.975 22.007)" fill="#000000"/>
<path d="M7.378,35.123C6.273,35.123 5.378,36.019 5.378,37.123C5.378,38.228 6.273,39.123 7.378,39.123L7.378,35.123ZM37.628,39.123C38.732,39.123 39.628,38.228 39.628,37.123C39.628,36.019 38.732,35.123 37.628,35.123L37.628,39.123ZM7.378,39.123L37.628,39.123L37.628,35.123L7.378,35.123L7.378,39.123Z" transform="rotate(-4 22.503 37.123)" fill="#000000"/>
</svg>
