<svg width="44" height="44" viewBox="0 0 44 44" fill="none" xmlns="http://www.w3.org/2000/svg" xmlns:xlink="http://www.w3.org/1999/xlink">
<g opacity="0.2">
<path d="M14.235,22L29.765,22L22,5.5L14.235,22Z" fill="#000000"/>
</g>
<path d="M31.19,29.727C31.661,30.726 32.852,31.155 33.852,30.685C34.851,30.214 35.28,29.023 34.81,28.023L31.19,29.727ZM22,5.5L23.81,4.648C23.48,3.947 22.775,3.5 22,3.5C21.225,3.5 20.52,3.947 20.19,4.648L22,5.5ZM9.19,28.023C8.72,29.023 9.149,30.214 10.148,30.685C11.148,31.155 12.339,30.726 12.81,29.727L9.19,28.023ZM34.81,28.023L23.81,4.648L20.19,6.352L31.19,29.727L34.81,28.023ZM20.19,4.648L9.19,28.023L12.81,29.727L23.81,6.352L20.19,4.648Z" fill="#000000"/>
<line x1="14.235" y1="20" x2="29.765" y2="20" stroke="#000000" stroke-width="2" stroke-miterlimit="3.999327" stroke-linecap="round" stroke-linejoin="round"/>
<line x1="6.875" y1="35.125" x2="37.125" y2="35.125" stroke="#000000" stroke-width="2" stroke-miterlimit="3.999327" stroke-linecap="round" stroke-linejoin="round"/>
</svg>
