<svg width="46" height="48" viewBox="0 0 46 48" fill="none" xmlns="http://www.w3.org/2000/svg" xmlns:xlink="http://www.w3.org/1999/xlink">
<path d="M7.486,10.606C6.382,10.606 5.486,11.501 5.486,12.606C5.486,13.711 6.382,14.606 7.486,14.606L7.486,10.606ZM37.736,14.606C38.841,14.606 39.736,13.711 39.736,12.606C39.736,11.501 38.841,10.606 37.736,10.606L37.736,14.606ZM7.486,14.606L37.736,14.606L37.736,10.606L7.486,10.606L7.486,14.606Z" transform="rotate(-4 22.611 12.606)" fill="#000000"/>
<path d="M7.729,17.621C6.624,17.621 5.729,18.516 5.729,19.621C5.729,20.725 6.624,21.621 7.729,21.621L7.729,17.621ZM29.729,21.621C30.833,21.621 31.729,20.725 31.729,19.621C31.729,18.516 30.833,17.621 29.729,17.621L29.729,21.621ZM7.729,21.621L29.729,21.621L29.729,17.621L7.729,17.621L7.729,21.621Z" transform="rotate(-4 18.729 19.621)" fill="#000000"/>
<path d="M7.966,24.348C6.862,24.348 5.966,25.243 5.966,26.348C5.966,27.452 6.862,28.348 7.966,28.348L7.966,24.348ZM38.216,28.348C39.321,28.348 40.216,27.452 40.216,26.348C40.216,25.243 39.321,24.348 38.216,24.348L38.216,28.348ZM7.966,28.348L38.216,28.348L38.216,24.348L7.966,24.348L7.966,28.348Z" transform="rotate(-4 23.091 26.348)" fill="#000000"/>
<path d="M8.209,31.362C7.104,31.362 6.209,32.258 6.209,33.362C6.209,34.467 7.104,35.362 8.209,35.362L8.209,31.362ZM30.209,35.362C31.313,35.362 32.209,34.467 32.209,33.362C32.209,32.258 31.313,31.362 30.209,31.362L30.209,35.362ZM8.209,35.362L30.209,35.362L30.209,31.362L8.209,31.362L8.209,35.362Z" transform="rotate(-4 19.209 33.362)" fill="#000000"/>
<g opacity="0.2">
<path d="M7.846,12.6L38.096,12.6L38.096,30.475C38.096,31.204 37.806,31.904 37.291,32.419C36.775,32.935 36.076,33.225 35.346,33.225L7.846,33.225L7.846,12.6Z" transform="rotate(-4 22.971 22.912)" fill="#000000"/>
</g>
</svg>
