<svg width="46" height="46" viewBox="0 0 46 46" fill="none" xmlns="http://www.w3.org/2000/svg" xmlns:xlink="http://www.w3.org/1999/xlink">
<path d="M7.585,9.385C6.481,9.385 5.585,10.28 5.585,11.385C5.585,12.489 6.481,13.385 7.585,13.385L7.585,9.385ZM37.835,13.385C38.94,13.385 39.835,12.489 39.835,11.385C39.835,10.28 38.94,9.385 37.835,9.385L37.835,13.385ZM7.585,13.385L37.835,13.385L37.835,9.385L7.585,9.385L7.585,13.385Z" transform="rotate(-4 22.71 11.385)" fill="#000000"/>
<path d="M7.828,16.399C6.723,16.399 5.828,17.295 5.828,18.399C5.828,19.504 6.723,20.399 7.828,20.399L7.828,16.399ZM29.828,20.399C30.932,20.399 31.828,19.504 31.828,18.399C31.828,17.295 30.932,16.399 29.828,16.399L29.828,20.399ZM7.828,20.399L29.828,20.399L29.828,16.399L7.828,16.399L7.828,20.399Z" transform="rotate(-4 18.828 18.399)" fill="#000000"/>
<path d="M8.065,23.126C6.961,23.126 6.065,24.022 6.065,25.126C6.065,26.231 6.961,27.126 8.065,27.126L8.065,23.126ZM38.315,27.126C39.42,27.126 40.315,26.231 40.315,25.126C40.315,24.022 39.42,23.126 38.315,23.126L38.315,27.126ZM8.065,27.126L38.315,27.126L38.315,23.126L8.065,23.126L8.065,27.126Z" transform="rotate(-4 23.19 25.126)" fill="#000000"/>
<path d="M8.308,30.141C7.203,30.141 6.308,31.036 6.308,32.141C6.308,33.246 7.203,34.141 8.308,34.141L8.308,30.141ZM30.308,34.141C31.412,34.141 32.308,33.246 32.308,32.141C32.308,31.036 31.412,30.141 30.308,30.141L30.308,34.141ZM8.308,34.141L30.308,34.141L30.308,30.141L8.308,30.141L8.308,34.141Z" transform="rotate(-4 19.308 32.141)" fill="#000000"/>
<g opacity="0.2">
<path d="M7.945,11.378L38.195,11.378L38.195,29.253C38.195,29.983 37.905,30.682 37.39,31.198C36.874,31.713 36.175,32.003 35.445,32.003L7.945,32.003L7.945,11.378Z" transform="rotate(-4 23.07 21.691)" fill="#000000"/>
</g>
</svg>
