<svg width="42" height="42" viewBox="0 0 42 42" fill="none" xmlns="http://www.w3.org/2000/svg" xmlns:xlink="http://www.w3.org/1999/xlink">
<g opacity="0.2">
<path d="M32.184,9.116L32.184,32.866C32.184,33.198 32.052,33.516 31.818,33.75C31.583,33.985 31.265,34.116 30.934,34.116L10.934,34.116C10.602,34.116 10.284,33.985 10.05,33.75C9.816,33.516 9.684,33.198 9.684,32.866L9.684,9.116L32.184,9.116Z" transform="rotate(4 20.934 21.616)" fill="#000000" fill-opacity="0.75"/>
</g>
<path d="M35.12,11.124C36.225,11.124 37.12,10.228 37.12,9.124C37.12,8.019 36.225,7.124 35.12,7.124L35.12,11.124ZM7.62,7.124C6.515,7.124 5.62,8.019 5.62,9.124C5.62,10.228 6.515,11.124 7.62,11.124L7.62,7.124ZM35.12,7.124L7.62,7.124L7.62,11.124L35.12,11.124L35.12,7.124Z" transform="rotate(4 21.37 9.124)" fill="#000000" fill-opacity="0.75"/>
<path d="M19.186,16.485C19.186,15.381 18.291,14.485 17.186,14.485C16.082,14.485 15.186,15.381 15.186,16.485L19.186,16.485ZM15.186,26.485C15.186,27.59 16.082,28.485 17.186,28.485C18.291,28.485 19.186,27.59 19.186,26.485L15.186,26.485ZM15.186,16.485L15.186,26.485L19.186,26.485L19.186,16.485L15.186,16.485Z" transform="rotate(4 17.186 21.485)" fill="#000000" fill-opacity="0.75"/>
<path d="M26.682,16.747C26.682,15.643 25.786,14.747 24.682,14.747C23.577,14.747 22.682,15.643 22.682,16.747L26.682,16.747ZM22.682,26.747C22.682,27.852 23.577,28.747 24.682,28.747C25.786,28.747 26.682,27.852 26.682,26.747L22.682,26.747ZM22.682,16.747L22.682,26.747L26.682,26.747L26.682,16.747L22.682,16.747Z" transform="rotate(4 24.682 21.747)" fill="#000000" fill-opacity="0.75"/>
<path d="M34.184,9.116C34.184,8.012 33.288,7.116 32.184,7.116C31.079,7.116 30.184,8.012 30.184,9.116L34.184,9.116ZM11.684,9.116C11.684,8.012 10.788,7.116 9.684,7.116C8.579,7.116 7.684,8.012 7.684,9.116L11.684,9.116ZM30.184,9.116L30.184,32.866L34.184,32.866L34.184,9.116L30.184,9.116ZM30.184,32.866C30.184,32.667 30.263,32.477 30.403,32.336L33.232,35.164C33.841,34.555 34.184,33.728 34.184,32.866L30.184,32.866ZM30.403,32.336C30.544,32.195 30.735,32.116 30.934,32.116L30.934,36.116C31.796,36.116 32.622,35.774 33.232,35.164L30.403,32.336ZM30.934,32.116L10.934,32.116L10.934,36.116L30.934,36.116L30.934,32.116ZM10.934,32.116C11.133,32.116 11.324,32.195 11.464,32.336L8.636,35.164C9.245,35.774 10.072,36.116 10.934,36.116L10.934,32.116ZM11.464,32.336C11.605,32.477 11.684,32.667 11.684,32.866L7.684,32.866C7.684,33.728 8.026,34.555 8.636,35.164L11.464,32.336ZM11.684,32.866L11.684,9.116L7.684,9.116L7.684,32.866L11.684,32.866Z" transform="rotate(4 20.934 21.616)" fill="#000000" fill-opacity="0.75"/>
<path d="M25.707,9.125C25.707,10.23 26.603,11.125 27.707,11.125C28.812,11.125 29.707,10.23 29.707,9.125L25.707,9.125ZM25.207,4.125L25.207,2.125L25.207,4.125ZM17.707,4.125L17.707,2.125L17.707,4.125ZM13.207,9.125C13.207,10.23 14.103,11.125 15.207,11.125C16.312,11.125 17.207,10.23 17.207,9.125L13.207,9.125ZM29.707,9.125L29.707,6.625L25.707,6.625L25.707,9.125L29.707,9.125ZM29.707,6.625C29.707,5.432 29.233,4.287 28.389,3.443L25.561,6.272C25.655,6.366 25.707,6.493 25.707,6.625L29.707,6.625ZM28.389,3.443C27.545,2.6 26.401,2.125 25.207,2.125L25.207,6.125C25.34,6.125 25.467,6.178 25.561,6.272L28.389,3.443ZM25.207,2.125L17.707,2.125L17.707,6.125L25.207,6.125L25.207,2.125ZM17.707,2.125C16.514,2.125 15.369,2.6 14.525,3.443L17.354,6.272C17.448,6.178 17.575,6.125 17.707,6.125L17.707,2.125ZM14.525,3.443C13.681,4.287 13.207,5.432 13.207,6.625L17.207,6.625C17.207,6.493 17.26,6.366 17.354,6.272L14.525,3.443ZM13.207,6.625L13.207,9.125L17.207,9.125L17.207,6.625L13.207,6.625Z" transform="rotate(4 21.457 6.625)" fill="#000000" fill-opacity="0.75"/>
</svg>
