<svg width="42" height="42" viewBox="0 0 42 42" fill="none" xmlns="http://www.w3.org/2000/svg" xmlns:xlink="http://www.w3.org/1999/xlink">
<g opacity="0.2">
<path d="M32.184,9.696L32.184,33.446C32.184,33.778 32.052,34.096 31.818,34.33C31.583,34.565 31.265,34.696 30.934,34.696L10.934,34.696C10.602,34.696 10.284,34.565 10.05,34.33C9.815,34.096 9.684,33.778 9.684,33.446L9.684,9.696L32.184,9.696Z" transform="rotate(4 20.934 22.196)" fill="#000000" fill-opacity="0.75"/>
</g>
<path d="M35.12,11.704C36.225,11.704 37.12,10.808 37.12,9.704C37.12,8.599 36.225,7.704 35.12,7.704L35.12,11.704ZM7.62,7.704C6.515,7.704 5.62,8.599 5.62,9.704C5.62,10.808 6.515,11.704 7.62,11.704L7.62,7.704ZM35.12,7.704L7.62,7.704L7.62,11.704L35.12,11.704L35.12,7.704Z" transform="rotate(4 21.37 9.704)" fill="#000000" fill-opacity="0.75"/>
<path d="M19.186,17.065C19.186,15.961 18.291,15.065 17.186,15.065C16.081,15.065 15.186,15.961 15.186,17.065L19.186,17.065ZM15.186,27.065C15.186,28.17 16.081,29.065 17.186,29.065C18.291,29.065 19.186,28.17 19.186,27.065L15.186,27.065ZM15.186,17.065L15.186,27.065L19.186,27.065L19.186,17.065L15.186,17.065Z" transform="rotate(4 17.186 22.065)" fill="#000000" fill-opacity="0.75"/>
<path d="M26.681,17.327C26.681,16.223 25.786,15.327 24.681,15.327C23.577,15.327 22.681,16.223 22.681,17.327L26.681,17.327ZM22.681,27.327C22.681,28.432 23.577,29.327 24.681,29.327C25.786,29.327 26.681,28.432 26.681,27.327L22.681,27.327ZM22.681,17.327L22.681,27.327L26.681,27.327L26.681,17.327L22.681,17.327Z" transform="rotate(4 24.681 22.327)" fill="#000000" fill-opacity="0.75"/>
<path d="M34.184,9.696C34.184,8.592 33.288,7.696 32.184,7.696C31.079,7.696 30.184,8.592 30.184,9.696L34.184,9.696ZM11.684,9.696C11.684,8.592 10.788,7.696 9.684,7.696C8.579,7.696 7.684,8.592 7.684,9.696L11.684,9.696ZM30.184,9.696L30.184,33.446L34.184,33.446L34.184,9.696L30.184,9.696ZM30.184,33.446C30.184,33.247 30.263,33.057 30.403,32.916L33.232,35.744C33.841,35.135 34.184,34.308 34.184,33.446L30.184,33.446ZM30.403,32.916C30.544,32.775 30.735,32.696 30.934,32.696L30.934,36.696C31.796,36.696 32.622,36.354 33.232,35.744L30.403,32.916ZM30.934,32.696L10.934,32.696L10.934,36.696L30.934,36.696L30.934,32.696ZM10.934,32.696C11.133,32.696 11.323,32.775 11.464,32.916L8.636,35.744C9.245,36.354 10.072,36.696 10.934,36.696L10.934,32.696ZM11.464,32.916C11.605,33.057 11.684,33.247 11.684,33.446L7.684,33.446C7.684,34.308 8.026,35.135 8.636,35.744L11.464,32.916ZM11.684,33.446L11.684,9.696L7.684,9.696L7.684,33.446L11.684,33.446Z" transform="rotate(4 20.934 22.196)" fill="#000000" fill-opacity="0.75"/>
<path d="M25.707,9.705C25.707,10.81 26.603,11.705 27.707,11.705C28.812,11.705 29.707,10.81 29.707,9.705L25.707,9.705ZM25.207,4.705L25.207,2.705L25.207,4.705ZM17.707,4.705L17.707,2.705L17.707,4.705ZM13.207,9.705C13.207,10.81 14.103,11.705 15.207,11.705C16.312,11.705 17.207,10.81 17.207,9.705L13.207,9.705ZM29.707,9.705L29.707,7.205L25.707,7.205L25.707,9.705L29.707,9.705ZM29.707,7.205C29.707,6.012 29.233,4.867 28.389,4.023L25.561,6.852C25.654,6.946 25.707,7.073 25.707,7.205L29.707,7.205ZM28.389,4.023C27.545,3.179 26.401,2.705 25.207,2.705L25.207,6.705C25.34,6.705 25.467,6.758 25.561,6.852L28.389,4.023ZM25.207,2.705L17.707,2.705L17.707,6.705L25.207,6.705L25.207,2.705ZM17.707,2.705C16.514,2.705 15.369,3.179 14.525,4.023L17.354,6.852C17.447,6.758 17.575,6.705 17.707,6.705L17.707,2.705ZM14.525,4.023C13.681,4.867 13.207,6.012 13.207,7.205L17.207,7.205C17.207,7.073 17.26,6.946 17.354,6.852L14.525,4.023ZM13.207,7.205L13.207,9.705L17.207,9.705L17.207,7.205L13.207,7.205Z" transform="rotate(4 21.457 7.205)" fill="#000000" fill-opacity="0.75"/>
</svg>
