<svg width="42" height="42" viewBox="0 0 42 42" fill="none" xmlns="http://www.w3.org/2000/svg" xmlns:xlink="http://www.w3.org/1999/xlink">
<g opacity="0.2">
<path d="M32.184,9.975L32.184,33.725C32.184,34.057 32.052,34.375 31.818,34.609C31.583,34.844 31.265,34.975 30.934,34.975L10.934,34.975C10.602,34.975 10.284,34.844 10.05,34.609C9.816,34.375 9.684,34.057 9.684,33.725L9.684,9.975L32.184,9.975Z" transform="rotate(4 20.934 22.475)" fill="#000000" fill-opacity="0.75"/>
</g>
<path d="M35.12,11.983C36.225,11.983 37.12,11.088 37.12,9.983C37.12,8.878 36.225,7.983 35.12,7.983L35.12,11.983ZM7.62,7.983C6.516,7.983 5.62,8.878 5.62,9.983C5.62,11.088 6.516,11.983 7.62,11.983L7.62,7.983ZM35.12,7.983L7.62,7.983L7.62,11.983L35.12,11.983L35.12,7.983Z" transform="rotate(4 21.37 9.983)" fill="#000000" fill-opacity="0.75"/>
<path d="M19.186,17.344C19.186,16.24 18.291,15.344 17.186,15.344C16.082,15.344 15.186,16.24 15.186,17.344L19.186,17.344ZM15.186,27.344C15.186,28.449 16.082,29.344 17.186,29.344C18.291,29.344 19.186,28.449 19.186,27.344L15.186,27.344ZM15.186,17.344L15.186,27.344L19.186,27.344L19.186,17.344L15.186,17.344Z" transform="rotate(4 17.186 22.344)" fill="#000000" fill-opacity="0.75"/>
<path d="M26.682,17.606C26.682,16.502 25.786,15.606 24.682,15.606C23.577,15.606 22.682,16.502 22.682,17.606L26.682,17.606ZM22.682,27.606C22.682,28.711 23.577,29.606 24.682,29.606C25.786,29.606 26.682,28.711 26.682,27.606L22.682,27.606ZM22.682,17.606L22.682,27.606L26.682,27.606L26.682,17.606L22.682,17.606Z" transform="rotate(4 24.682 22.606)" fill="#000000" fill-opacity="0.75"/>
<path d="M34.184,9.975C34.184,8.871 33.288,7.975 32.184,7.975C31.079,7.975 30.184,8.871 30.184,9.975L34.184,9.975ZM11.684,9.975C11.684,8.871 10.788,7.975 9.684,7.975C8.579,7.975 7.684,8.871 7.684,9.975L11.684,9.975ZM30.184,9.975L30.184,33.725L34.184,33.725L34.184,9.975L30.184,9.975ZM30.184,33.725C30.184,33.526 30.263,33.336 30.403,33.195L33.232,36.023C33.841,35.414 34.184,34.587 34.184,33.725L30.184,33.725ZM30.403,33.195C30.544,33.054 30.735,32.975 30.934,32.975L30.934,36.975C31.796,36.975 32.622,36.633 33.232,36.023L30.403,33.195ZM30.934,32.975L10.934,32.975L10.934,36.975L30.934,36.975L30.934,32.975ZM10.934,32.975C11.133,32.975 11.324,33.054 11.464,33.195L8.636,36.023C9.245,36.633 10.072,36.975 10.934,36.975L10.934,32.975ZM11.464,33.195C11.605,33.336 11.684,33.526 11.684,33.725L7.684,33.725C7.684,34.587 8.026,35.414 8.636,36.023L11.464,33.195ZM11.684,33.725L11.684,9.975L7.684,9.975L7.684,33.725L11.684,33.725Z" transform="rotate(4 20.934 22.475)" fill="#000000" fill-opacity="0.75"/>
<path d="M25.708,9.985C25.708,11.089 26.603,11.985 27.708,11.985C28.812,11.985 29.708,11.089 29.708,9.985L25.708,9.985ZM25.208,4.985L25.208,2.985L25.208,4.985ZM17.708,4.985L17.708,2.985L17.708,4.985ZM13.208,9.985C13.208,11.089 14.103,11.985 15.208,11.985C16.312,11.985 17.208,11.089 17.208,9.985L13.208,9.985ZM29.708,9.985L29.708,7.485L25.708,7.485L25.708,9.985L29.708,9.985ZM29.708,7.485C29.708,6.291 29.233,5.146 28.39,4.303L25.561,7.131C25.655,7.225 25.708,7.352 25.708,7.485L29.708,7.485ZM28.39,4.303C27.546,3.459 26.401,2.985 25.208,2.985L25.208,6.985C25.34,6.985 25.467,7.037 25.561,7.131L28.39,4.303ZM25.208,2.985L17.708,2.985L17.708,6.985L25.208,6.985L25.208,2.985ZM17.708,2.985C16.514,2.985 15.369,3.459 14.526,4.303L17.354,7.131C17.448,7.037 17.575,6.985 17.708,6.985L17.708,2.985ZM14.526,4.303C13.682,5.146 13.208,6.291 13.208,7.485L17.208,7.485C17.208,7.352 17.26,7.225 17.354,7.131L14.526,4.303ZM13.208,7.485L13.208,9.985L17.208,9.985L17.208,7.485L13.208,7.485Z" transform="rotate(4 21.458 7.485)" fill="#000000" fill-opacity="0.75"/>
</svg>
