<svg width="42" height="42" viewBox="0 0 42 42" fill="none" xmlns="http://www.w3.org/2000/svg" xmlns:xlink="http://www.w3.org/1999/xlink">
<g opacity="0.2">
<path d="M32.229,8.725L32.229,32.475C32.229,32.807 32.097,33.124 31.863,33.359C31.628,33.593 31.311,33.725 30.979,33.725L10.979,33.725C10.648,33.725 10.33,33.593 10.095,33.359C9.861,33.124 9.729,32.807 9.729,32.475L9.729,8.725L32.229,8.725Z" transform="rotate(4 20.979 21.225)" fill="#E42525"/>
</g>
<path d="M35.165,10.733C36.27,10.733 37.165,9.837 37.165,8.733C37.165,7.628 36.27,6.733 35.165,6.733L35.165,10.733ZM7.665,6.733C6.561,6.733 5.665,7.628 5.665,8.733C5.665,9.837 6.561,10.733 7.665,10.733L7.665,6.733ZM35.165,6.733L7.665,6.733L7.665,10.733L35.165,10.733L35.165,6.733Z" transform="rotate(4 21.415 8.733)" fill="#E42525"/>
<path d="M19.232,16.094C19.232,14.99 18.336,14.094 17.232,14.094C16.127,14.094 15.232,14.99 15.232,16.094L19.232,16.094ZM15.232,26.094C15.232,27.199 16.127,28.094 17.232,28.094C18.336,28.094 19.232,27.199 19.232,26.094L15.232,26.094ZM15.232,16.094L15.232,26.094L19.232,26.094L19.232,16.094L15.232,16.094Z" transform="rotate(4 17.232 21.094)" fill="#E42525"/>
<path d="M26.727,16.356C26.727,15.251 25.831,14.356 24.727,14.356C23.622,14.356 22.727,15.251 22.727,16.356L26.727,16.356ZM22.727,26.356C22.727,27.461 23.622,28.356 24.727,28.356C25.831,28.356 26.727,27.461 26.727,26.356L22.727,26.356ZM22.727,16.356L22.727,26.356L26.727,26.356L26.727,16.356L22.727,16.356Z" transform="rotate(4 24.727 21.356)" fill="#E42525"/>
<path d="M34.229,8.725C34.229,7.621 33.334,6.725 32.229,6.725C31.124,6.725 30.229,7.621 30.229,8.725L34.229,8.725ZM11.729,8.725C11.729,7.621 10.834,6.725 9.729,6.725C8.624,6.725 7.729,7.621 7.729,8.725L11.729,8.725ZM30.229,8.725L30.229,32.475L34.229,32.475L34.229,8.725L30.229,8.725ZM30.229,32.475C30.229,32.276 30.308,32.085 30.449,31.945L33.277,34.773C33.887,34.164 34.229,33.337 34.229,32.475L30.229,32.475ZM30.449,31.945C30.589,31.804 30.78,31.725 30.979,31.725L30.979,35.725C31.841,35.725 32.668,35.383 33.277,34.773L30.449,31.945ZM30.979,31.725L10.979,31.725L10.979,35.725L30.979,35.725L30.979,31.725ZM10.979,31.725C11.178,31.725 11.369,31.804 11.509,31.945L8.681,34.773C9.29,35.383 10.117,35.725 10.979,35.725L10.979,31.725ZM11.509,31.945C11.65,32.085 11.729,32.276 11.729,32.475L7.729,32.475C7.729,33.337 8.071,34.164 8.681,34.773L11.509,31.945ZM11.729,32.475L11.729,8.725L7.729,8.725L7.729,32.475L11.729,32.475Z" transform="rotate(4 20.979 21.225)" fill="#E42525"/>
<path d="M25.753,8.734C25.753,9.839 26.648,10.734 27.753,10.734C28.857,10.734 29.753,9.839 29.753,8.734L25.753,8.734ZM25.253,3.734L25.253,1.734L25.253,3.734ZM17.753,3.734L17.753,1.734L17.753,3.734ZM13.253,8.734C13.253,9.839 14.148,10.734 15.253,10.734C16.357,10.734 17.253,9.839 17.253,8.734L13.253,8.734ZM29.753,8.734L29.753,6.234L25.753,6.234L25.753,8.734L29.753,8.734ZM29.753,6.234C29.753,5.041 29.279,3.896 28.435,3.052L25.606,5.881C25.7,5.974 25.753,6.102 25.753,6.234L29.753,6.234ZM28.435,3.052C27.591,2.208 26.446,1.734 25.253,1.734L25.253,5.734C25.385,5.734 25.512,5.787 25.606,5.881L28.435,3.052ZM25.253,1.734L17.753,1.734L17.753,5.734L25.253,5.734L25.253,1.734ZM17.753,1.734C16.559,1.734 15.415,2.208 14.571,3.052L17.399,5.881C17.493,5.787 17.62,5.734 17.753,5.734L17.753,1.734ZM14.571,3.052C13.727,3.896 13.253,5.041 13.253,6.234L17.253,6.234C17.253,6.102 17.305,5.974 17.399,5.881L14.571,3.052ZM13.253,6.234L13.253,8.734L17.253,8.734L17.253,6.234L13.253,6.234Z" transform="rotate(4 21.503 6.234)" fill="#E42525"/>
</svg>
