<svg width="24" height="12" viewBox="0 0 24 12" fill="none" xmlns="http://www.w3.org/2000/svg" xmlns:xlink="http://www.w3.org/1999/xlink">
<path d="M20,10C20,11.105 20.895,12 22,12C23.105,12 24,11.105 24,10L20,10ZM18,2L18,0L18,2ZM6,2L6,0L6,2ZM0,10C0,11.105 0.895,12 2,12C3.105,12 4,11.105 4,10L0,10ZM24,10L24,6L20,6L20,10L24,10ZM24,6C24,4.409 23.368,2.883 22.243,1.757L19.414,4.586C19.789,4.961 20,5.47 20,6L24,6ZM22.243,1.757C21.117,0.632 19.591,0 18,0L18,4C18.53,4 19.039,4.211 19.414,4.586L22.243,1.757ZM18,0L6,0L6,4L18,4L18,0ZM6,0C4.409,0 2.883,0.632 1.757,1.757L4.586,4.586C4.961,4.211 5.47,4 6,4L6,0ZM1.757,1.757C0.632,2.883 0,4.409 0,6L4,6C4,5.47 4.211,4.961 4.586,4.586L1.757,1.757ZM0,6L0,10L4,10L4,6L0,6Z" fill="#E3E3E3"/>
</svg>
