<svg width="24" height="14" viewBox="0 0 24 14" fill="none" xmlns="http://www.w3.org/2000/svg" xmlns:xlink="http://www.w3.org/1999/xlink">
<path d="M20,10.792C20,11.897 20.895,12.792 22,12.792C23.105,12.792 24,11.897 24,10.792L20,10.792ZM18,2.792L18,0.792L18,2.792ZM6,2.792L6,0.792L6,2.792ZM0,10.792C0,11.897 0.895,12.792 2,12.792C3.105,12.792 4,11.897 4,10.792L0,10.792ZM24,10.792L24,6.792L20,6.792L20,10.792L24,10.792ZM24,6.792C24,5.201 23.368,3.675 22.243,2.549L19.414,5.378C19.789,5.753 20,6.262 20,6.792L24,6.792ZM22.243,2.549C21.117,1.424 19.591,0.792 18,0.792L18,4.792C18.53,4.792 19.039,5.003 19.414,5.378L22.243,2.549ZM18,0.792L6,0.792L6,4.792L18,4.792L18,0.792ZM6,0.792C4.409,0.792 2.883,1.424 1.757,2.549L4.586,5.378C4.961,5.003 5.47,4.792 6,4.792L6,0.792ZM1.757,2.549C0.632,3.675 0,5.201 0,6.792L4,6.792C4,6.262 4.211,5.753 4.586,5.378L1.757,2.549ZM0,6.792L0,10.792L4,10.792L4,6.792L0,6.792Z" fill="#E3E3E3"/>
</svg>
