<svg width="24" height="12" viewBox="0 0 24 12" fill="none" xmlns="http://www.w3.org/2000/svg" xmlns:xlink="http://www.w3.org/1999/xlink">
<path d="M20,9.419C20,10.523 20.895,11.419 22,11.419C23.105,11.419 24,10.523 24,9.419L20,9.419ZM18,1.419L18,-0.581L18,1.419ZM6,1.419L6,-0.581L6,1.419ZM0,9.419C0,10.523 0.895,11.419 2,11.419C3.105,11.419 4,10.523 4,9.419L0,9.419ZM24,9.419L24,5.419L20,5.419L20,9.419L24,9.419ZM24,5.419C24,3.828 23.368,2.301 22.243,1.176L19.414,4.005C19.789,4.38 20,4.888 20,5.419L24,5.419ZM22.243,1.176C21.117,0.051 19.591,-0.581 18,-0.581L18,3.419C18.53,3.419 19.039,3.63 19.414,4.005L22.243,1.176ZM18,-0.581L6,-0.581L6,3.419L18,3.419L18,-0.581ZM6,-0.581C4.409,-0.581 2.883,0.051 1.757,1.176L4.586,4.005C4.961,3.63 5.47,3.419 6,3.419L6,-0.581ZM1.757,1.176C0.632,2.301 0,3.828 0,5.419L4,5.419C4,4.888 4.211,4.38 4.586,4.005L1.757,1.176ZM0,5.419L0,9.419L4,9.419L4,5.419L0,5.419Z" fill="#E3E3E3"/>
</svg>
