<svg width="56" height="56" viewBox="0 0 56 56" fill="none" xmlns="http://www.w3.org/2000/svg" xmlns:xlink="http://www.w3.org/1999/xlink">
<g opacity="0.2">
<path d="M43.75,8.75L12.25,8.75C10.317,8.75 8.75,10.317 8.75,12.25L8.75,43.75C8.75,45.683 10.317,47.25 12.25,47.25L43.75,47.25C45.683,47.25 47.25,45.683 47.25,43.75L47.25,12.25C47.25,10.317 45.683,8.75 43.75,8.75Z" fill="#000000"/>
</g>
<path d="M45.164,13.664C45.945,12.883 45.945,11.617 45.164,10.836C44.383,10.055 43.117,10.055 42.336,10.836L45.164,13.664ZM10.836,42.336C10.055,43.117 10.055,44.383 10.836,45.164C11.617,45.945 12.883,45.945 13.664,45.164L10.836,42.336ZM42.336,10.836L10.836,42.336L13.664,45.164L45.164,13.664L42.336,10.836Z" fill="#000000"/>
<path d="M42.336,45.164C43.117,45.945 44.383,45.945 45.164,45.164C45.945,44.383 45.945,43.117 45.164,42.336L42.336,45.164ZM13.664,10.836C12.883,10.055 11.617,10.055 10.836,10.836C10.055,11.617 10.055,12.883 10.836,13.664L13.664,10.836ZM45.164,42.336L13.664,10.836L10.836,13.664L42.336,45.164L45.164,42.336Z" fill="#000000"/>
</svg>
